# ITS MAP intersection converted to Wavefront OBJ
# Units: metres
# Three.js right-handed axes: X=east, Y=up, Z=-north
# refLatitude=52.5000634
# refLongitude=13.3064561
# refElevationMeters=null
# Lane solid thickness: 0.150 m

o ReferencePoint_WGS84
# localPosition=0,0,0
# latitude=52.5000634
# longitude=13.3064561
v 0.000000 0.000000 0.000000
v 0.650000 1.000000 0.000000
v 0.459619 1.000000 0.459619
v 0.000000 1.000000 0.650000
v -0.459619 1.000000 0.459619
v -0.650000 1.000000 0.000000
v -0.459619 1.000000 -0.459619
v -0.000000 1.000000 -0.650000
v 0.459619 1.000000 -0.459619
v 0.000000 1.850000 0.000000
f 1 3 2
f 10 2 3
f 1 4 3
f 10 3 4
f 1 5 4
f 10 4 5
f 1 6 5
f 10 5 6
f 1 7 6
f 10 6 7
f 1 8 7
f 10 7 8
f 1 9 8
f 10 8 9
f 1 2 9
f 10 9 2

o Lane_001_Fahrstreifen_1_im_Arm_1_INGRESS
# laneID=1
# name=Fahrstreifen 1 im Arm 1
# direction=INGRESS
# ingressApproach=1
# egressApproach=null
# widthMeters=3.250
# nodeCount=4
# signalGroups=8,10
# connection targetLane=16 signalGroup=8 connectionID=47 maneuvers=maneuverStraightAllowed
# connection targetLane=7 signalGroup=10 connectionID=48 maneuvers=maneuverLeftAllowed
# connection targetLane=8 signalGroup=10 connectionID=50 maneuvers=maneuverLeftAllowed
# connection targetLane=9 signalGroup=10 connectionID=49 maneuvers=maneuverLeftAllowed
v 16.057603 0.000000 21.939239
v 15.142397 0.000000 18.820761
v 16.057603 -0.150000 21.939239
v 15.142397 -0.150000 18.820761
v 13.306777 0.000000 22.746546
v 12.373223 0.000000 19.633454
v 13.306777 -0.150000 22.746546
v 12.373223 -0.150000 19.633454
v -36.011074 0.000000 37.852825
v -36.968926 0.000000 34.747175
v -36.011074 -0.150000 37.852825
v -36.968926 -0.150000 34.747175
v -271.628072 0.000000 111.021892
v -272.591928 0.000000 107.918108
v -271.628072 -0.150000 111.021892
v -272.591928 -0.150000 107.918108
f 11 12 16 15
f 13 17 18 14
f 11 15 17 13
f 12 16 18 14
f 15 16 20 19
f 17 21 22 18
f 15 19 21 17
f 16 20 22 18
f 19 20 24 23
f 21 25 26 22
f 19 23 25 21
f 20 24 26 22
f 11 13 14 12
f 23 24 26 25

o Arrow_Lane_001_INGRESS
# parentLane=Lane_001_Fahrstreifen_1_im_Arm_1_INGRESS
# direction=INGRESS
v -131.303363 0.060000 66.066079
v -127.454670 0.060000 64.870896
v -127.219786 0.060000 65.627265
v -125.187138 0.060000 63.844222
v -127.872243 0.060000 63.526241
v -127.637358 0.060000 64.282610
v -131.486051 0.060000 65.477792
v -131.303363 0.020000 66.066079
v -127.454670 0.020000 64.870896
v -127.219786 0.020000 65.627265
v -125.187138 0.020000 63.844222
v -127.872243 0.020000 63.526241
v -127.637358 0.020000 64.282610
v -131.486051 0.020000 65.477792
f 32 28 27
f 34 35 39
f 33 32 27
f 34 39 40
f 31 30 29
f 36 37 38
f 27 34 35 28
f 28 35 36 29
f 29 36 37 30
f 30 37 38 31
f 31 38 39 32
f 32 39 40 33
f 33 40 34 27

o Lane_002_Fahrstreifen_2_im_Arm_1_INGRESS
# laneID=2
# name=Fahrstreifen 2 im Arm 1
# direction=INGRESS
# ingressApproach=1
# egressApproach=null
# widthMeters=3.250
# nodeCount=3
# signalGroups=8,9
# connection targetLane=17 signalGroup=8 connectionID=44 maneuvers=maneuverStraightAllowed
# connection targetLane=23 signalGroup=9 connectionID=66 maneuvers=maneuverRightAllowed
v 16.897603 0.000000 24.879239
v 15.982397 0.000000 21.760761
v 16.897603 -0.150000 24.879239
v 15.982397 -0.150000 21.760761
v 14.149731 0.000000 25.685679
v 13.210269 0.000000 22.574321
v 14.149731 -0.150000 25.685679
v 13.210269 -0.150000 22.574321
v -270.518197 0.000000 114.061931
v -271.481803 0.000000 110.958069
v -270.518197 -0.150000 114.061931
v -271.481803 -0.150000 110.958069
f 41 42 46 45
f 43 47 48 44
f 41 45 47 43
f 42 46 48 44
f 45 46 50 49
f 47 51 52 48
f 45 49 51 47
f 46 50 52 48
f 41 43 44 42
f 49 50 52 51

o Arrow_Lane_002_INGRESS
# parentLane=Lane_002_Fahrstreifen_2_im_Arm_1_INGRESS
# direction=INGRESS
v -130.299010 0.060000 69.151338
v -126.450220 0.060000 67.956467
v -126.215397 0.060000 68.712854
v -124.182605 0.060000 66.929975
v -126.867684 0.060000 66.611778
v -126.632860 0.060000 67.368165
v -130.481650 0.060000 68.563037
v -130.299010 0.020000 69.151338
v -126.450220 0.020000 67.956467
v -126.215397 0.020000 68.712854
v -124.182605 0.020000 66.929975
v -126.867684 0.020000 66.611778
v -126.632860 0.020000 67.368165
v -130.481650 0.020000 68.563037
f 58 54 53
f 60 61 65
f 59 58 53
f 60 65 66
f 57 56 55
f 62 63 64
f 53 60 61 54
f 54 61 62 55
f 55 62 63 56
f 56 63 64 57
f 57 64 65 58
f 58 65 66 59
f 59 66 60 53

o Lane_003_Fahrstreifen_3_im_Arm_1_INGRESS
# laneID=3
# name=Fahrstreifen 3 im Arm 1
# direction=INGRESS
# ingressApproach=1
# egressApproach=null
# widthMeters=3.250
# nodeCount=4
# signalGroups=9
# connection targetLane=22 signalGroup=9 connectionID=45 maneuvers=maneuverRightAllowed
# connection targetLane=21 signalGroup=9 connectionID=46 maneuvers=maneuverRightAllowed
# connection targetLane=23 signalGroup=9 connectionID=62 maneuvers=maneuverRightAllowed
v 17.817603 0.000000 27.559239
v 16.902397 0.000000 24.440761
v 17.817603 -0.150000 27.559239
v 16.902397 -0.150000 24.440761
v 15.061487 0.000000 28.368098
v 14.138513 0.000000 25.251902
v 15.061487 -0.150000 28.368098
v 14.138513 -0.150000 25.251902
v -21.540020 0.000000 39.308218
v -21.859980 0.000000 36.011782
v -21.540020 -0.150000 39.308218
v -21.859980 -0.150000 36.011782
v -36.667260 0.000000 37.837373
v -36.352740 0.000000 34.602627
v -36.667260 -0.150000 37.837373
v -36.352740 -0.150000 34.602627
f 67 68 72 71
f 69 73 74 70
f 67 71 73 69
f 68 72 74 70
f 71 72 76 75
f 73 77 78 74
f 71 75 77 73
f 72 76 78 74
f 75 76 80 79
f 77 81 82 78
f 75 79 81 77
f 76 80 82 78
f 67 69 70 68
f 79 80 82 81

o Arrow_Lane_003_INGRESS
# parentLane=Lane_003_Fahrstreifen_3_im_Arm_1_INGRESS
# direction=INGRESS
v -12.326019 0.060000 35.179599
v -8.464810 0.060000 34.025491
v -8.237997 0.060000 34.784319
v -6.186467 0.060000 33.023035
v -8.868032 0.060000 32.676463
v -8.641219 0.060000 33.435292
v -12.502428 0.060000 34.589399
v -12.326019 0.020000 35.179599
v -8.464810 0.020000 34.025491
v -8.237997 0.020000 34.784319
v -6.186467 0.020000 33.023035
v -8.868032 0.020000 32.676463
v -8.641219 0.020000 33.435292
v -12.502428 0.020000 34.589399
f 88 84 83
f 90 91 95
f 89 88 83
f 90 95 96
f 87 86 85
f 92 93 94
f 83 90 91 84
f 84 91 92 85
f 85 92 93 86
f 86 93 94 87
f 87 94 95 88
f 88 95 96 89
f 89 96 90 83

o Lane_004_Fahrstreifen_1_im_Arm_2_INGRESS
# laneID=4
# name=Fahrstreifen 1 im Arm 2
# direction=INGRESS
# ingressApproach=2
# egressApproach=null
# widthMeters=3.250
# nodeCount=3
# signalGroups=14
# connection targetLane=16 signalGroup=14 connectionID=56 maneuvers=maneuverLeftAllowed
v 26.872259 0.000000 -15.222434
v 30.007741 0.000000 -16.077566
v 26.872259 -0.150000 -15.222434
v 30.007741 -0.150000 -16.077566
v 25.407836 0.000000 -20.591986
v 28.532164 0.000000 -21.488014
v 25.407836 -0.150000 -20.591986
v 28.532164 -0.150000 -21.488014
v 12.863944 0.000000 -62.271690
v 15.976056 0.000000 -63.208310
v 12.863944 -0.150000 -62.271690
v 15.976056 -0.150000 -63.208310
f 97 98 102 101
f 99 103 104 100
f 97 101 103 99
f 98 102 104 100
f 101 102 106 105
f 103 107 108 104
f 101 105 107 103
f 102 106 108 104
f 97 99 100 98
f 105 106 108 107

o Arrow_Lane_004_INGRESS
# parentLane=Lane_004_Fahrstreifen_1_im_Arm_2_INGRESS
# direction=INGRESS
v 20.268488 0.060000 -42.238437
v 21.429896 0.060000 -38.379417
v 20.671498 0.060000 -38.151170
v 22.436659 0.060000 -36.102974
v 22.778159 0.060000 -38.785189
v 22.019761 0.060000 -38.556942
v 20.858353 0.060000 -42.415962
v 20.268488 0.020000 -42.238437
v 21.429896 0.020000 -38.379417
v 20.671498 0.020000 -38.151170
v 22.436659 0.020000 -36.102974
v 22.778159 0.020000 -38.785189
v 22.019761 0.020000 -38.556942
v 20.858353 0.020000 -42.415962
f 114 110 109
f 116 117 121
f 115 114 109
f 116 121 122
f 113 112 111
f 118 119 120
f 109 116 117 110
f 110 117 118 111
f 111 118 119 112
f 112 119 120 113
f 113 120 121 114
f 114 121 122 115
f 115 122 116 109

o Lane_005_Fahrstreifen_2_im_Arm_2_INGRESS
# laneID=5
# name=Fahrstreifen 2 im Arm 2
# direction=INGRESS
# ingressApproach=2
# egressApproach=null
# widthMeters=3.250
# nodeCount=3
# signalGroups=16
# connection targetLane=22 signalGroup=16 connectionID=60 maneuvers=maneuverStraightAllowed
v 24.034699 0.000000 -14.349189
v 27.145301 0.000000 -15.290811
v 24.034699 -0.150000 -14.349189
v 27.145301 -0.150000 -15.290811
v 22.584717 0.000000 -19.139127
v 25.695283 0.000000 -20.080873
v 22.584717 -0.150000 -19.139127
v 25.695283 -0.150000 -20.080873
v 9.824736 0.000000 -61.279066
v 12.935264 0.000000 -62.220934
v 9.824736 -0.150000 -61.279066
v 12.935264 -0.150000 -62.220934
f 123 124 128 127
f 125 129 130 126
f 123 127 129 125
f 124 128 130 126
f 127 128 132 131
f 129 133 134 130
f 127 131 133 129
f 128 132 134 130
f 123 125 126 124
f 131 132 134 133

o Arrow_Lane_005_INGRESS
# parentLane=Lane_005_Fahrstreifen_2_im_Arm_2_INGRESS
# direction=INGRESS
v 17.248538 0.060000 -41.306325
v 18.416455 0.060000 -37.449270
v 17.658443 0.060000 -37.219744
v 19.427058 0.060000 -35.174529
v 19.764032 0.060000 -37.857317
v 19.006020 0.060000 -37.627791
v 17.838103 0.060000 -41.484845
v 17.248538 0.020000 -41.306325
v 18.416455 0.020000 -37.449270
v 17.658443 0.020000 -37.219744
v 19.427058 0.020000 -35.174529
v 19.764032 0.020000 -37.857317
v 19.006020 0.020000 -37.627791
v 17.838103 0.020000 -41.484845
f 140 136 135
f 142 143 147
f 141 140 135
f 142 147 148
f 139 138 137
f 144 145 146
f 135 142 143 136
f 136 143 144 137
f 137 144 145 138
f 138 145 146 139
f 139 146 147 140
f 140 147 148 141
f 141 148 142 135

o Lane_006_Fahrstreifen_3_im_Arm_2_INGRESS
# laneID=6
# name=Fahrstreifen 3 im Arm 2
# direction=INGRESS
# ingressApproach=2
# egressApproach=null
# widthMeters=3.250
# nodeCount=3
# signalGroups=15,16
# connection targetLane=12 signalGroup=15 connectionID=59 maneuvers=maneuverRightAllowed
# connection targetLane=23 signalGroup=16 connectionID=61 maneuvers=maneuverStraightAllowed
# connection targetLane=11 signalGroup=15 connectionID=64 maneuvers=maneuverRightAllowed
v 21.014699 0.000000 -13.439189
v 24.125301 0.000000 -14.380811
v 21.014699 -0.150000 -13.439189
v 24.125301 -0.150000 -14.380811
v 19.563434 0.000000 -18.233368
v 22.676566 0.000000 -19.166632
v 19.563434 -0.150000 -18.233368
v 22.676566 -0.150000 -19.166632
v 7.002191 0.000000 -60.547554
v 10.117809 0.000000 -61.472446
v 7.002191 -0.150000 -60.547554
v 10.117809 -0.150000 -61.472446
f 149 150 154 153
f 151 155 156 152
f 149 153 155 151
f 150 154 156 152
f 153 154 158 157
f 155 159 160 156
f 153 157 159 155
f 154 158 160 156
f 149 151 152 150
f 157 158 160 159

o Arrow_Lane_006_INGRESS
# parentLane=Lane_006_Fahrstreifen_3_im_Arm_2_INGRESS
# direction=INGRESS
v 14.331962 0.060000 -40.484105
v 15.478827 0.060000 -36.620739
v 14.719575 0.060000 -36.395350
v 16.477009 0.060000 -34.340520
v 16.828609 0.060000 -37.021430
v 16.069357 0.060000 -36.796041
v 14.922491 0.060000 -40.659407
v 14.331962 0.020000 -40.484105
v 15.478827 0.020000 -36.620739
v 14.719575 0.020000 -36.395350
v 16.477009 0.020000 -34.340520
v 16.828609 0.020000 -37.021430
v 16.069357 0.020000 -36.796041
v 14.922491 0.020000 -40.659407
f 166 162 161
f 168 169 173
f 167 166 161
f 168 173 174
f 165 164 163
f 170 171 172
f 161 168 169 162
f 162 169 170 163
f 163 170 171 164
f 164 171 172 165
f 165 172 173 166
f 166 173 174 167
f 167 174 168 161

o Lane_007_Fahrstreifen_4_im_Arm_2_EGRESS
# laneID=7
# name=Fahrstreifen 4 im Arm 2
# direction=EGRESS
# ingressApproach=null
# egressApproach=2
# widthMeters=3.250
# nodeCount=3
# signalGroups=none
v 39.044555 0.000000 -16.391488
v 42.235445 0.000000 -17.008512
v 39.044555 -0.150000 -16.391488
v 42.235445 -0.150000 -17.008512
v 38.342913 0.000000 -20.019976
v 42.237087 0.000000 -17.000024
v 38.342913 -0.150000 -20.019976
v 42.237087 -0.150000 -17.000024
v 40.521696 0.000000 -20.152024
v 40.718304 0.000000 -16.907976
v 40.521696 -0.150000 -20.152024
v 40.718304 -0.150000 -16.907976
f 175 176 180 179
f 177 181 182 178
f 175 179 181 177
f 176 180 182 178
f 179 180 184 183
f 181 185 186 182
f 179 183 185 181
f 180 184 186 182
f 175 177 178 176
f 183 184 186 185

o Arrow_Lane_007_EGRESS
# parentLane=Lane_007_Fahrstreifen_4_im_Arm_2_EGRESS
# direction=EGRESS
v 41.353038 0.060000 -14.634881
v 40.587929 0.060000 -18.591585
v 41.365525 0.060000 -18.741949
v 39.816594 0.060000 -20.958187
v 39.205537 0.060000 -18.324271
v 39.983133 0.060000 -18.474635
v 40.748242 0.060000 -14.517931
v 41.353038 0.020000 -14.634881
v 40.587929 0.020000 -18.591585
v 41.365525 0.020000 -18.741949
v 39.816594 0.020000 -20.958187
v 39.205537 0.020000 -18.324271
v 39.983133 0.020000 -18.474635
v 40.748242 0.020000 -14.517931
f 192 188 187
f 194 195 199
f 193 192 187
f 194 199 200
f 191 190 189
f 196 197 198
f 187 194 195 188
f 188 195 196 189
f 189 196 197 190
f 190 197 198 191
f 191 198 199 192
f 192 199 200 193
f 193 200 194 187

o Lane_008_Fahrstreifen_5_im_Arm_2_EGRESS
# laneID=8
# name=Fahrstreifen 5 im Arm 2
# direction=EGRESS
# ingressApproach=null
# egressApproach=2
# widthMeters=3.250
# nodeCount=3
# signalGroups=none
v 42.172728 0.000000 -16.940619
v 45.387272 0.000000 -17.419381
v 42.172728 -0.150000 -16.940619
v 45.387272 -0.150000 -17.419381
v 41.893694 0.000000 -18.814136
v 45.246306 0.000000 -18.365864
v 41.893694 -0.150000 -18.814136
v 45.246306 -0.150000 -18.365864
v 42.442078 0.000000 -20.063234
v 45.417922 0.000000 -18.756766
v 42.442078 -0.150000 -20.063234
v 45.417922 -0.150000 -18.756766
f 201 202 206 205
f 203 207 208 204
f 201 205 207 203
f 202 206 208 204
f 205 206 210 209
f 207 211 212 208
f 205 209 211 207
f 206 210 212 208
f 201 203 204 202
f 209 210 212 211

o Arrow_Lane_008_EGRESS
# parentLane=Lane_008_Fahrstreifen_5_im_Arm_2_EGRESS
# direction=EGRESS
v 44.392440 0.060000 -15.158716
v 43.798775 0.060000 -19.144749
v 44.582134 0.060000 -19.261420
v 43.130276 0.060000 -21.542430
v 42.406136 0.060000 -18.937335
v 43.189495 0.060000 -19.054006
v 43.783160 0.060000 -15.067972
v 44.392440 0.020000 -15.158716
v 43.798775 0.020000 -19.144749
v 44.582134 0.020000 -19.261420
v 43.130276 0.020000 -21.542430
v 42.406136 0.020000 -18.937335
v 43.189495 0.020000 -19.054006
v 43.783160 0.020000 -15.067972
f 218 214 213
f 220 221 225
f 219 218 213
f 220 225 226
f 217 216 215
f 222 223 224
f 213 220 221 214
f 214 221 222 215
f 215 222 223 216
f 216 223 224 217
f 217 224 225 218
f 218 225 226 219
f 219 226 220 213

o Lane_009_Fahrstreifen_6_im_Arm_2_EGRESS
# laneID=9
# name=Fahrstreifen 6 im Arm 2
# direction=EGRESS
# ingressApproach=null
# egressApproach=2
# widthMeters=3.250
# nodeCount=3
# signalGroups=none
v 45.975260 0.000000 -17.188979
v 49.124740 0.000000 -17.991021
v 45.975260 -0.150000 -17.188979
v 49.124740 -0.150000 -17.991021
v 45.544651 0.000000 -18.879907
v 48.735349 0.000000 -19.520093
v 45.544651 -0.150000 -18.879907
v 48.735349 -0.150000 -19.520093
v 45.402446 0.000000 -19.842520
v 48.617554 0.000000 -20.317480
v 45.402446 -0.150000 -19.842520
v 48.617554 -0.150000 -20.317480
f 227 228 232 231
f 229 233 234 230
f 227 231 233 229
f 228 232 234 230
f 231 232 236 235
f 233 237 238 234
f 231 235 237 233
f 232 236 238 234
f 227 229 230 228
f 235 236 238 237

o Arrow_Lane_009_EGRESS
# parentLane=Lane_009_Fahrstreifen_6_im_Arm_2_EGRESS
# direction=EGRESS
v 48.335753 0.060000 -15.752547
v 47.341221 0.060000 -19.657903
v 48.108726 0.060000 -19.853354
v 46.433196 0.060000 -21.975500
v 45.976769 0.060000 -19.310434
v 46.744274 0.060000 -19.505885
v 47.738805 0.060000 -15.600529
v 48.335753 0.020000 -15.752547
v 47.341221 0.020000 -19.657903
v 48.108726 0.020000 -19.853354
v 46.433196 0.020000 -21.975500
v 45.976769 0.020000 -19.310434
v 46.744274 0.020000 -19.505885
v 47.738805 0.020000 -15.600529
f 244 240 239
f 246 247 251
f 245 244 239
f 246 251 252
f 243 242 241
f 248 249 250
f 239 246 247 240
f 240 247 248 241
f 241 248 249 242
f 242 249 250 243
f 243 250 251 244
f 244 251 252 245
f 245 252 246 239

o Lane_010_Fahrstreifen_4_im_Arm_1_EGRESS
# laneID=10
# name=Fahrstreifen 4 im Arm 1
# direction=EGRESS
# ingressApproach=null
# egressApproach=1
# widthMeters=3.250
# nodeCount=3
# signalGroups=none
v 14.666764 0.000000 11.229484
v 13.753236 0.000000 8.110516
v 14.666764 -0.150000 11.229484
v 13.753236 -0.150000 8.110516
v 8.874871 0.000000 12.925897
v 8.005129 0.000000 9.794103
v 8.874871 -0.150000 12.925897
v 8.005129 -0.150000 9.794103
v 4.702806 0.000000 14.021692
v 3.877194 0.000000 10.878308
v 4.702806 -0.150000 14.021692
v 3.877194 -0.150000 10.878308
f 253 254 258 257
f 255 259 260 256
f 253 257 259 255
f 254 258 260 256
f 257 258 262 261
f 259 263 264 260
f 257 261 263 259
f 258 262 264 260
f 253 255 256 254
f 261 262 264 263

o Arrow_Lane_010_EGRESS
# parentLane=Lane_010_Fahrstreifen_4_im_Arm_1_EGRESS
# direction=EGRESS
v 12.298512 0.060000 9.908925
v 8.430990 0.060000 11.041699
v 8.208370 0.060000 10.281631
v 6.147148 0.060000 12.031563
v 8.826759 0.060000 12.392933
v 8.604139 0.060000 11.632864
v 12.471660 0.060000 10.500089
v 12.298512 0.020000 9.908925
v 8.430990 0.020000 11.041699
v 8.208370 0.020000 10.281631
v 6.147148 0.020000 12.031563
v 8.826759 0.020000 12.392933
v 8.604139 0.020000 11.632864
v 12.471660 0.020000 10.500089
f 270 266 265
f 272 273 277
f 271 270 265
f 272 277 278
f 269 268 267
f 274 275 276
f 265 272 273 266
f 266 273 274 267
f 267 274 275 268
f 268 275 276 269
f 269 276 277 270
f 270 277 278 271
f 271 278 272 265

o Lane_011_Fahrstreifen_5_im_Arm_1_EGRESS
# laneID=11
# name=Fahrstreifen 5 im Arm 1
# direction=EGRESS
# ingressApproach=null
# egressApproach=1
# widthMeters=3.250
# nodeCount=3
# signalGroups=none
v 13.086014 0.000000 8.320618
v 12.113986 0.000000 5.219382
v 13.086014 -0.150000 8.320618
v 12.113986 -0.150000 5.219382
v 10.401873 0.000000 9.161916
v 9.438127 0.000000 6.058084
v 10.401873 -0.150000 9.161916
v 9.438127 -0.150000 6.058084
v 3.797724 0.000000 11.193192
v 2.842276 0.000000 8.086808
v 3.797724 -0.150000 11.193192
v 2.842276 -0.150000 8.086808
f 279 280 284 283
f 281 285 286 282
f 279 283 285 281
f 280 284 286 282
f 283 284 288 287
f 285 289 290 286
f 283 287 289 285
f 284 288 290 286
f 279 281 282 280
f 287 288 290 289

o Arrow_Lane_011_EGRESS
# parentLane=Lane_011_Fahrstreifen_5_im_Arm_1_EGRESS
# direction=EGRESS
v 10.978061 0.060000 6.962326
v 7.126145 0.060000 8.147082
v 6.893310 0.060000 7.390081
v 4.855841 0.060000 9.167613
v 7.540075 0.060000 9.492863
v 7.307240 0.060000 8.735861
v 11.159155 0.060000 7.551106
v 10.978061 0.020000 6.962326
v 7.126145 0.020000 8.147082
v 6.893310 0.020000 7.390081
v 4.855841 0.020000 9.167613
v 7.540075 0.020000 9.492863
v 7.307240 0.020000 8.735861
v 11.159155 0.020000 7.551106
f 296 292 291
f 298 299 303
f 297 296 291
f 298 303 304
f 295 294 293
f 300 301 302
f 291 298 299 292
f 292 299 300 293
f 293 300 301 294
f 294 301 302 295
f 295 302 303 296
f 296 303 304 297
f 297 304 298 291

o Lane_012_Fahrstreifen_6_im_Arm_1_EGRESS
# laneID=12
# name=Fahrstreifen 6 im Arm 1
# direction=EGRESS
# ingressApproach=null
# egressApproach=1
# widthMeters=3.250
# nodeCount=3
# signalGroups=none
v 12.277993 0.000000 5.449124
v 11.362007 0.000000 2.330876
v 12.277993 -0.150000 5.449124
v 11.362007 -0.150000 2.330876
v 7.449340 0.000000 6.867541
v 6.590660 0.000000 3.732459
v 7.449340 -0.150000 6.867541
v 6.590660 -0.150000 3.732459
v 2.700398 0.000000 8.074899
v 1.899602 0.000000 4.925101
v 2.700398 -0.150000 8.074899
v 1.899602 -0.150000 4.925101
f 305 306 310 309
f 307 311 312 308
f 305 309 311 307
f 306 310 312 308
f 309 310 314 313
f 311 315 316 312
f 309 313 315 311
f 310 314 316 312
f 305 307 308 306
f 313 314 316 315

o Arrow_Lane_012_EGRESS
# parentLane=Lane_012_Fahrstreifen_6_im_Arm_1_EGRESS
# direction=EGRESS
v 10.115080 0.060000 4.069807
v 6.248452 0.060000 5.205629
v 6.025233 0.060000 4.445736
v 3.965391 0.060000 6.197291
v 6.645285 0.060000 6.556550
v 6.422066 0.060000 5.796657
v 10.288694 0.060000 4.660835
v 10.115080 0.020000 4.069807
v 6.248452 0.020000 5.205629
v 6.025233 0.020000 4.445736
v 3.965391 0.020000 6.197291
v 6.645285 0.020000 6.556550
v 6.422066 0.020000 5.796657
v 10.288694 0.020000 4.660835
f 322 318 317
f 324 325 329
f 323 322 317
f 324 329 330
f 321 320 319
f 326 327 328
f 317 324 325 318
f 318 325 326 319
f 319 326 327 320
f 320 327 328 321
f 321 328 329 322
f 322 329 330 323
f 323 330 324 317

o Lane_013_Fahrstreifen_1_im_Arm_3_INGRESS
# laneID=13
# name=Fahrstreifen 1 im Arm 3
# direction=INGRESS
# ingressApproach=3
# egressApproach=null
# widthMeters=3.250
# nodeCount=4
# signalGroups=7,18
# connection targetLane=10 signalGroup=7 connectionID=43 maneuvers=maneuverStraightAllowed
# connection targetLane=12 signalGroup=7 connectionID=57 maneuvers=maneuverStraightAllowed
# connection targetLane=21 signalGroup=18 connectionID=91 maneuvers=maneuverLeftAllowed
# connection targetLane=23 signalGroup=18 connectionID=92 maneuvers=maneuverLeftAllowed
# connection targetLane=22 signalGroup=18 connectionID=93 maneuvers=maneuverLeftAllowed
v 63.850226 0.000000 -5.175689
v 64.349774 0.000000 -1.964311
v 63.850226 -0.150000 -5.175689
v 64.349774 -0.150000 -1.964311
v 68.787499 0.000000 -5.943710
v 69.312501 0.000000 -2.736290
v 68.787499 -0.150000 -5.943710
v 69.312501 -0.150000 -2.736290
v 131.045304 0.000000 -16.641614
v 131.594696 0.000000 -13.438386
v 131.045304 -0.150000 -16.641614
v 131.594696 -0.150000 -13.438386
v 304.885802 0.000000 -46.401699
v 305.434198 0.000000 -43.198301
v 304.885802 -0.150000 -46.401699
v 305.434198 -0.150000 -43.198301
f 331 332 336 335
f 333 337 338 334
f 331 335 337 333
f 332 336 338 334
f 335 336 340 339
f 337 341 342 338
f 335 339 341 337
f 336 340 342 338
f 339 340 344 343
f 341 345 346 342
f 339 343 345 341
f 340 344 346 342
f 331 333 334 332
f 343 344 346 345

o Arrow_Lane_013_INGRESS
# parentLane=Lane_013_Fahrstreifen_1_im_Arm_3_INGRESS
# direction=INGRESS
v 187.784255 0.060000 -25.018704
v 183.812041 0.060000 -24.338693
v 183.678401 0.060000 -25.119336
v 181.429429 0.060000 -23.618328
v 184.049623 0.060000 -22.950882
v 183.915983 0.060000 -23.731526
v 187.888197 0.060000 -24.411537
v 187.784255 0.020000 -25.018704
v 183.812041 0.020000 -24.338693
v 183.678401 0.020000 -25.119336
v 181.429429 0.020000 -23.618328
v 184.049623 0.020000 -22.950882
v 183.915983 0.020000 -23.731526
v 187.888197 0.020000 -24.411537
f 352 348 347
f 354 355 359
f 353 352 347
f 354 359 360
f 351 350 349
f 356 357 358
f 347 354 355 348
f 348 355 356 349
f 349 356 357 350
f 350 357 358 351
f 351 358 359 352
f 352 359 360 353
f 353 360 354 347

o Lane_014_Fahrstreifen_2_im_Arm_3_INGRESS
# laneID=14
# name=Fahrstreifen 2 im Arm 3
# direction=INGRESS
# ingressApproach=3
# egressApproach=null
# widthMeters=3.250
# nodeCount=3
# signalGroups=7
# connection targetLane=11 signalGroup=7 connectionID=58 maneuvers=maneuverStraightAllowed
v 63.290226 0.000000 -8.355689
v 63.789774 0.000000 -5.144311
v 63.290226 -0.150000 -8.355689
v 63.789774 -0.150000 -5.144311
v 68.227870 0.000000 -9.123767
v 68.752130 0.000000 -5.916233
v 68.227870 -0.150000 -9.123767
v 68.752130 -0.150000 -5.916233
v 304.505545 0.000000 -49.611655
v 305.054455 0.000000 -46.408345
v 304.505545 -0.150000 -49.611655
v 305.054455 -0.150000 -46.408345
f 361 362 366 365
f 363 367 368 364
f 361 365 367 363
f 362 366 368 364
f 365 366 370 369
f 367 371 372 368
f 365 369 371 367
f 366 370 372 368
f 361 363 364 362
f 369 370 372 371

o Arrow_Lane_014_INGRESS
# parentLane=Lane_014_Fahrstreifen_2_im_Arm_3_INGRESS
# direction=INGRESS
v 187.317509 0.060000 -28.194442
v 183.345404 0.060000 -27.513793
v 183.211639 0.060000 -28.294415
v 180.962908 0.060000 -26.793046
v 183.583209 0.060000 -26.126021
v 183.449443 0.060000 -26.906643
v 187.421548 0.060000 -27.587292
v 187.317509 0.020000 -28.194442
v 183.345404 0.020000 -27.513793
v 183.211639 0.020000 -28.294415
v 180.962908 0.020000 -26.793046
v 183.583209 0.020000 -26.126021
v 183.449443 0.020000 -26.906643
v 187.421548 0.020000 -27.587292
f 378 374 373
f 380 381 385
f 379 378 373
f 380 385 386
f 377 376 375
f 382 383 384
f 373 380 381 374
f 374 381 382 375
f 375 382 383 376
f 376 383 384 377
f 377 384 385 378
f 378 385 386 379
f 379 386 380 373

o Lane_015_Fahrstreifen_3_im_Arm_3_INGRESS
# laneID=15
# name=Fahrstreifen 3 im Arm 3
# direction=INGRESS
# ingressApproach=3
# egressApproach=null
# widthMeters=3.250
# nodeCount=4
# signalGroups=6
# connection targetLane=8 signalGroup=6 connectionID=39 maneuvers=maneuverRightAllowed
# connection targetLane=7 signalGroup=6 connectionID=40 maneuvers=maneuverRightAllowed
# connection targetLane=9 signalGroup=6 connectionID=38 maneuvers=maneuverRightAllowed
v 62.880226 0.000000 -11.245689
v 63.379774 0.000000 -8.034311
v 62.880226 -0.150000 -11.245689
v 63.379774 -0.150000 -8.034311
v 67.819681 0.000000 -12.014049
v 68.340319 0.000000 -8.805951
v 67.819681 -0.150000 -12.014049
v 68.340319 -0.150000 -8.805951
v 119.564441 0.000000 -20.760778
v 119.295559 0.000000 -17.419222
v 119.564441 -0.150000 -20.760778
v 119.295559 -0.150000 -17.419222
v 131.853555 0.000000 -16.578348
v 130.806445 0.000000 -13.501652
v 131.853555 -0.150000 -16.578348
v 130.806445 -0.150000 -13.501652
f 387 388 392 391
f 389 393 394 390
f 387 391 393 389
f 388 392 394 390
f 391 392 396 395
f 393 397 398 394
f 391 395 397 393
f 392 396 398 394
f 395 396 400 399
f 397 401 402 398
f 395 399 401 397
f 396 400 402 398
f 387 389 390 388
f 399 400 402 401

o Arrow_Lane_015_INGRESS
# parentLane=Lane_015_Fahrstreifen_3_im_Arm_3_INGRESS
# direction=INGRESS
v 100.635713 0.060000 -16.225458
v 96.662083 0.060000 -15.553771
v 96.530079 0.060000 -16.334693
v 94.277967 0.060000 -14.838400
v 96.896756 0.060000 -14.165465
v 96.764753 0.060000 -14.946387
v 100.738383 0.060000 -15.618074
v 100.635713 0.020000 -16.225458
v 96.662083 0.020000 -15.553771
v 96.530079 0.020000 -16.334693
v 94.277967 0.020000 -14.838400
v 96.896756 0.020000 -14.165465
v 96.764753 0.020000 -14.946387
v 100.738383 0.020000 -15.618074
f 408 404 403
f 410 411 415
f 409 408 403
f 410 415 416
f 407 406 405
f 412 413 414
f 403 410 411 404
f 404 411 412 405
f 405 412 413 406
f 406 413 414 407
f 407 414 415 408
f 408 415 416 409
f 409 416 410 403

o Lane_016_Fahrstreifen_4_im_Arm_3_EGRESS
# laneID=16
# name=Fahrstreifen 4 im Arm 3
# direction=EGRESS
# ingressApproach=null
# egressApproach=3
# widthMeters=3.250
# nodeCount=3
# signalGroups=none
v 65.480226 0.000000 6.124311
v 65.979774 0.000000 9.335689
v 65.480226 -0.150000 6.124311
v 65.979774 -0.150000 9.335689
v 70.435030 0.000000 5.353564
v 70.924970 0.000000 8.566436
v 70.435030 -0.150000 5.353564
v 70.924970 -0.150000 8.566436
v 84.559837 0.000000 3.242845
v 85.040163 0.000000 6.457155
v 84.559837 -0.150000 3.242845
v 85.040163 -0.150000 6.457155
f 417 418 422 421
f 419 423 424 420
f 417 421 423 419
f 418 422 424 420
f 421 422 426 425
f 423 427 428 424
f 421 425 427 423
f 422 426 428 424
f 417 419 420 418
f 425 426 428 427

o Arrow_Lane_016_EGRESS
# parentLane=Lane_016_Fahrstreifen_4_im_Arm_3_EGRESS
# direction=EGRESS
v 72.093951 0.060000 7.060128
v 76.079695 0.060000 6.464525
v 76.196747 0.060000 7.247827
v 78.477051 0.060000 5.794860
v 75.871604 0.060000 5.071987
v 75.988655 0.060000 5.855290
v 72.002911 0.060000 6.450893
v 72.093951 0.020000 7.060128
v 76.079695 0.020000 6.464525
v 76.196747 0.020000 7.247827
v 78.477051 0.020000 5.794860
v 75.871604 0.020000 5.071987
v 75.988655 0.020000 5.855290
v 72.002911 0.020000 6.450893
f 434 430 429
f 436 437 441
f 435 434 429
f 436 441 442
f 433 432 431
f 438 439 440
f 429 436 437 430
f 430 437 438 431
f 431 438 439 432
f 432 439 440 433
f 433 440 441 434
f 434 441 442 435
f 435 442 436 429

o Lane_017_Fahrstreifen_5_im_Arm_3_EGRESS
# laneID=17
# name=Fahrstreifen 5 im Arm 3
# direction=EGRESS
# ingressApproach=null
# egressApproach=3
# widthMeters=3.250
# nodeCount=3
# signalGroups=none
v 66.122280 0.000000 10.797205
v 66.657720 0.000000 14.002795
v 66.122280 -0.150000 10.797205
v 66.657720 -0.150000 14.002795
v 70.689418 0.000000 10.034343
v 71.190582 0.000000 13.245657
v 70.689418 -0.150000 10.034343
v 71.190582 -0.150000 13.245657
v 85.176612 0.000000 7.931847
v 85.643388 0.000000 11.148153
v 85.176612 -0.150000 7.931847
v 85.643388 -0.150000 11.148153
f 443 444 448 447
f 445 449 450 446
f 443 447 449 445
f 444 448 450 446
f 447 448 452 451
f 449 453 454 450
f 447 451 453 449
f 448 452 454 450
f 443 445 446 444
f 451 452 454 453

o Arrow_Lane_017_EGRESS
# parentLane=Lane_017_Fahrstreifen_5_im_Arm_3_EGRESS
# direction=EGRESS
v 72.720326 0.060000 11.692852
v 76.708544 0.060000 11.114050
v 76.822294 0.060000 11.897839
v 79.108700 0.060000 10.454494
v 76.506323 0.060000 9.720648
v 76.620072 0.060000 10.504437
v 72.631854 0.060000 11.083238
v 72.720326 0.020000 11.692852
v 76.708544 0.020000 11.114050
v 76.822294 0.020000 11.897839
v 79.108700 0.020000 10.454494
v 76.506323 0.020000 9.720648
v 76.620072 0.020000 10.504437
v 72.631854 0.020000 11.083238
f 460 456 455
f 462 463 467
f 461 460 455
f 462 467 468
f 459 458 457
f 464 465 466
f 455 462 463 456
f 456 463 464 457
f 457 464 465 458
f 458 465 466 459
f 459 466 467 460
f 460 467 468 461
f 461 468 462 455

o Lane_018_Fahrstreifen_1_im_Arm_4_INGRESS
# laneID=18
# name=Fahrstreifen 1 im Arm 4
# direction=INGRESS
# ingressApproach=4
# egressApproach=null
# widthMeters=3.250
# nodeCount=3
# signalGroups=11
# connection targetLane=10 signalGroup=11 connectionID=51 maneuvers=maneuverLeftAllowed
# connection targetLane=12 signalGroup=11 connectionID=52 maneuvers=maneuverLeftAllowed
v 49.531639 0.000000 29.172047
v 46.308361 0.000000 29.587953
v 49.531639 -0.150000 29.172047
v 46.308361 -0.150000 29.587953
v 50.172532 0.000000 34.138966
v 46.947468 0.000000 34.541034
v 50.172532 -0.150000 34.138966
v 46.947468 -0.150000 34.541034
v 58.353365 0.000000 102.135893
v 55.126635 0.000000 102.524107
v 58.353365 -0.150000 102.135893
v 55.126635 -0.150000 102.524107
f 469 470 474 473
f 471 475 476 472
f 469 473 475 471
f 470 474 476 472
f 473 474 478 477
f 475 479 480 476
f 473 477 479 475
f 474 478 480 476
f 469 471 472 470
f 477 478 480 479

o Arrow_Lane_018_INGRESS
# parentLane=Lane_018_Fahrstreifen_1_im_Arm_4_INGRESS
# direction=INGRESS
v 53.045316 0.060000 69.042283
v 52.563931 0.060000 65.041138
v 53.350260 0.060000 64.946533
v 51.963093 0.060000 62.625613
v 51.166012 0.060000 65.209324
v 51.952341 0.060000 65.114719
v 52.433726 0.060000 69.115865
v 53.045316 0.020000 69.042283
v 52.563931 0.020000 65.041138
v 53.350260 0.020000 64.946533
v 51.963093 0.020000 62.625613
v 51.166012 0.020000 65.209324
v 51.952341 0.020000 65.114719
v 52.433726 0.020000 69.115865
f 486 482 481
f 488 489 493
f 487 486 481
f 488 493 494
f 485 484 483
f 490 491 492
f 481 488 489 482
f 482 489 490 483
f 483 490 491 484
f 484 491 492 485
f 485 492 493 486
f 486 493 494 487
f 487 494 488 481

o Lane_019_Fahrstreifen_2_im_Arm_4_INGRESS
# laneID=19
# name=Fahrstreifen 2 im Arm 4
# direction=INGRESS
# ingressApproach=4
# egressApproach=null
# widthMeters=3.250
# nodeCount=5
# signalGroups=12
# connection targetLane=8 signalGroup=12 connectionID=53 maneuvers=maneuverStraightAllowed
v 52.681639 0.000000 28.682047
v 49.458361 0.000000 29.097953
v 52.681639 -0.150000 28.682047
v 49.458361 -0.150000 29.097953
v 53.322536 0.000000 33.649002
v 50.097464 0.000000 34.050998
v 53.322536 -0.150000 33.649002
v 50.097464 -0.150000 34.050998
v 59.448552 0.000000 84.585868
v 56.231448 0.000000 85.054132
v 59.448552 -0.150000 84.585868
v 56.231448 -0.150000 85.054132
v 61.991674 0.000000 99.455654
v 58.788326 0.000000 100.004346
v 61.991674 -0.150000 99.455654
v 58.788326 -0.150000 100.004346
v 62.401604 0.000000 101.845248
v 59.198396 0.000000 102.394752
v 62.401604 -0.150000 101.845248
v 59.198396 -0.150000 102.394752
f 495 496 500 499
f 497 501 502 498
f 495 499 501 497
f 496 500 502 498
f 499 500 504 503
f 501 505 506 502
f 499 503 505 501
f 500 504 506 502
f 503 504 508 507
f 505 509 510 506
f 503 507 509 505
f 504 508 510 506
f 507 508 512 511
f 509 513 514 510
f 507 511 513 509
f 508 512 514 510
f 495 497 498 496
f 511 512 514 513

o Arrow_Lane_019_INGRESS
# parentLane=Lane_019_Fahrstreifen_2_im_Arm_4_INGRESS
# direction=INGRESS
v 56.218159 0.060000 68.755214
v 55.736951 0.060000 64.754047
v 56.523285 0.060000 64.659477
v 55.136221 0.060000 62.338496
v 54.339025 0.060000 64.922171
v 55.125358 0.060000 64.827602
v 55.606566 0.060000 68.828769
v 56.218159 0.020000 68.755214
v 55.736951 0.020000 64.754047
v 56.523285 0.020000 64.659477
v 55.136221 0.020000 62.338496
v 54.339025 0.020000 64.922171
v 55.125358 0.020000 64.827602
v 55.606566 0.020000 68.828769
f 520 516 515
f 522 523 527
f 521 520 515
f 522 527 528
f 519 518 517
f 524 525 526
f 515 522 523 516
f 516 523 524 517
f 517 524 525 518
f 518 525 526 519
f 519 526 527 520
f 520 527 528 521
f 521 528 522 515

o Lane_020_Fahrstreifen_3_im_Arm_4_INGRESS
# laneID=20
# name=Fahrstreifen 3 im Arm 4
# direction=INGRESS
# ingressApproach=4
# egressApproach=null
# widthMeters=3.250
# nodeCount=4
# signalGroups=12,13
# connection targetLane=9 signalGroup=12 connectionID=54 maneuvers=maneuverStraightAllowed
# connection targetLane=16 signalGroup=13 connectionID=55 maneuvers=maneuverRightAllowed
# connection targetLane=17 signalGroup=13 connectionID=65 maneuvers=maneuverRightAllowed
v 55.721639 0.000000 28.132047
v 52.498361 0.000000 28.547953
v 55.721639 -0.150000 28.132047
v 52.498361 -0.150000 28.547953
v 56.361564 0.000000 33.091465
v 53.138436 0.000000 33.508535
v 56.361564 -0.150000 33.091465
v 53.138436 -0.150000 33.508535
v 62.366452 0.000000 79.366192
v 59.113548 0.000000 79.553808
v 62.366452 -0.150000 79.366192
v 59.113548 -0.150000 79.553808
v 62.084845 0.000000 99.742456
v 58.835155 0.000000 99.697544
v 62.084845 -0.150000 99.742456
v 58.835155 -0.150000 99.697544
f 529 530 534 533
f 531 535 536 532
f 529 533 535 531
f 530 534 536 532
f 533 534 538 537
f 535 539 540 536
f 533 537 539 535
f 534 538 540 536
f 537 538 542 541
f 539 543 544 540
f 537 541 543 539
f 538 542 544 540
f 529 531 532 530
f 541 542 544 543

o Arrow_Lane_020_INGRESS
# parentLane=Lane_020_Fahrstreifen_3_im_Arm_4_INGRESS
# direction=INGRESS
v 59.450607 0.060000 67.130304
v 58.931998 0.060000 63.133812
v 59.717413 0.060000 63.031892
v 58.308702 0.060000 60.723985
v 57.535705 0.060000 63.315004
v 58.321120 0.060000 63.213084
v 58.839729 0.060000 67.209575
v 59.450607 0.020000 67.130304
v 58.931998 0.020000 63.133812
v 59.717413 0.020000 63.031892
v 58.308702 0.020000 60.723985
v 57.535705 0.020000 63.315004
v 58.321120 0.020000 63.213084
v 58.839729 0.020000 67.209575
f 550 546 545
f 552 553 557
f 551 550 545
f 552 557 558
f 549 548 547
f 554 555 556
f 545 552 553 546
f 546 553 554 547
f 547 554 555 548
f 548 555 556 549
f 549 556 557 550
f 550 557 558 551
f 551 558 552 545

o Lane_021_Fahrstreifen_4_im_Arm_4_EGRESS
# laneID=21
# name=Fahrstreifen 4 im Arm 4
# direction=EGRESS
# ingressApproach=null
# egressApproach=4
# widthMeters=3.250
# nodeCount=3
# signalGroups=none
v 39.264154 0.000000 32.750551
v 36.055846 0.000000 33.269449
v 39.264154 -0.150000 32.750551
v 36.055846 -0.150000 33.269449
v 40.083163 0.000000 37.814419
v 36.876837 0.000000 38.345581
v 40.083163 -0.150000 37.814419
v 36.876837 -0.150000 38.345581
v 40.662124 0.000000 41.228295
v 37.457876 0.000000 41.771705
v 40.662124 -0.150000 41.228295
v 37.457876 -0.150000 41.771705
f 559 560 564 563
f 561 565 566 562
f 559 563 565 561
f 560 564 566 562
f 563 564 568 567
f 565 569 570 566
f 563 567 569 565
f 564 568 570 566
f 559 561 562 560
f 567 568 570 569

o Arrow_Lane_021_EGRESS
# parentLane=Lane_021_Fahrstreifen_4_im_Arm_4_EGRESS
# direction=EGRESS
v 37.523972 0.060000 34.098034
v 38.167405 0.060000 38.076337
v 37.385565 0.060000 38.202788
v 38.865817 0.060000 40.465476
v 39.557343 0.060000 37.851534
v 38.775503 0.060000 37.977986
v 38.132069 0.060000 33.999683
v 37.523972 0.020000 34.098034
v 38.167405 0.020000 38.076337
v 37.385565 0.020000 38.202788
v 38.865817 0.020000 40.465476
v 39.557343 0.020000 37.851534
v 38.775503 0.020000 37.977986
v 38.132069 0.020000 33.999683
f 576 572 571
f 578 579 583
f 577 576 571
f 578 583 584
f 575 574 573
f 580 581 582
f 571 578 579 572
f 572 579 580 573
f 573 580 581 574
f 574 581 582 575
f 575 582 583 576
f 576 583 584 577
f 577 584 578 571

o Lane_022_Fahrstreifen_5_im_Arm_4_EGRESS
# laneID=22
# name=Fahrstreifen 5 im Arm 4
# direction=EGRESS
# ingressApproach=null
# egressApproach=4
# widthMeters=3.250
# nodeCount=3
# signalGroups=none
v 37.311639 0.000000 33.332047
v 34.088361 0.000000 33.747953
v 37.311639 -0.150000 33.332047
v 34.088361 -0.150000 33.747953
v 37.960235 0.000000 38.358664
v 34.719765 0.000000 38.641336
v 37.960235 -0.150000 38.358664
v 34.719765 -0.150000 38.641336
v 38.113303 0.000000 41.705764
v 34.866697 0.000000 41.854236
v 38.113303 -0.150000 41.705764
v 34.866697 -0.150000 41.854236
f 585 586 590 589
f 587 591 592 588
f 585 589 591 587
f 586 590 592 588
f 589 590 594 593
f 591 595 596 592
f 589 593 595 591
f 590 594 596 592
f 585 587 588 586
f 593 594 596 595

o Arrow_Lane_022_EGRESS
# parentLane=Lane_022_Fahrstreifen_5_im_Arm_4_EGRESS
# direction=EGRESS
v 35.508718 0.060000 34.464353
v 36.024442 0.060000 38.461218
v 35.238954 0.060000 38.562571
v 36.645999 0.060000 40.871494
v 37.420866 0.060000 38.281034
v 36.635378 0.060000 38.382387
v 36.119653 0.060000 34.385522
v 35.508718 0.020000 34.464353
v 36.024442 0.020000 38.461218
v 35.238954 0.020000 38.562571
v 36.645999 0.020000 40.871494
v 37.420866 0.020000 38.281034
v 36.635378 0.020000 38.382387
v 36.119653 0.020000 34.385522
f 602 598 597
f 604 605 609
f 603 602 597
f 604 609 610
f 601 600 599
f 606 607 608
f 597 604 605 598
f 598 605 606 599
f 599 606 607 600
f 600 607 608 601
f 601 608 609 602
f 602 609 610 603
f 603 610 604 597

o Lane_023_Fahrstreifen_6_im_Arm_4_EGRESS
# laneID=23
# name=Fahrstreifen 6 im Arm 4
# direction=EGRESS
# ingressApproach=null
# egressApproach=4
# widthMeters=3.250
# nodeCount=3
# signalGroups=none
v 33.837167 0.000000 33.690531
v 30.642833 0.000000 34.289469
v 33.837167 -0.150000 33.690531
v 30.642833 -0.150000 34.289469
v 34.770720 0.000000 38.669480
v 31.569280 0.000000 39.230520
v 34.770720 -0.150000 38.669480
v 31.569280 -0.150000 39.230520
v 35.223822 0.000000 41.448507
v 32.016178 0.000000 41.971493
v 35.223822 -0.150000 41.448507
v 32.016178 -0.150000 41.971493
f 611 612 616 615
f 613 617 618 614
f 611 615 617 613
f 612 616 618 614
f 615 616 620 619
f 617 621 622 618
f 615 619 621 617
f 616 620 622 618
f 611 613 614 612
f 619 620 622 621

o Arrow_Lane_023_EGRESS
# parentLane=Lane_023_Fahrstreifen_6_im_Arm_4_EGRESS
# direction=EGRESS
v 32.061014 0.060000 34.706700
v 32.803697 0.060000 38.667675
v 32.025262 0.060000 38.813631
v 33.561614 0.060000 41.038608
v 34.187581 0.060000 38.408197
v 33.409146 0.060000 38.554153
v 32.666463 0.060000 34.593178
v 32.061014 0.020000 34.706700
v 32.803697 0.020000 38.667675
v 32.025262 0.020000 38.813631
v 33.561614 0.020000 41.038608
v 34.187581 0.020000 38.408197
v 33.409146 0.020000 38.554153
v 32.666463 0.020000 34.593178
f 628 624 623
f 630 631 635
f 629 628 623
f 630 635 636
f 627 626 625
f 632 633 634
f 623 630 631 624
f 624 631 632 625
f 625 632 633 626
f 626 633 634 627
f 627 634 635 628
f 628 635 636 629
f 629 636 630 623

o Lane_024_Fahrstreifen_1_im_Arm_5_INGRESS
# laneID=24
# name=Fahrstreifen 1 im Arm 5
# direction=INGRESS
# ingressApproach=5
# egressApproach=null
# widthMeters=3.250
# nodeCount=3
# signalGroups=5
# connection targetLane=34 signalGroup=5 connectionID=34 maneuvers=maneuverStraightAllowed
v 27.536611 0.000000 -70.228618
v 24.443389 0.000000 -69.231382
v 27.536611 -0.150000 -70.228618
v 24.443389 -0.150000 -69.231382
v 29.215863 0.000000 -65.019919
v 26.104137 0.000000 -64.080081
v 29.215863 -0.150000 -65.019919
v 26.104137 -0.150000 -64.080081
v 42.194044 0.000000 -18.980897
v 39.065956 0.000000 -18.099103
v 42.194044 -0.150000 -18.980897
v 39.065956 -0.150000 -18.099103
f 637 638 642 641
f 639 643 644 640
f 637 641 643 639
f 638 642 644 640
f 641 642 646 645
f 643 647 648 644
f 641 645 647 643
f 642 646 648 644
f 637 639 640 638
f 645 646 648 647

o Arrow_Lane_024_INGRESS
# parentLane=Lane_024_Fahrstreifen_1_im_Arm_5_INGRESS
# direction=INGRESS
v 34.584901 0.060000 -41.119673
v 33.491478 0.060000 -44.998503
v 34.253769 0.060000 -45.213389
v 32.524868 0.060000 -47.292284
v 32.136293 0.060000 -44.616483
v 32.898584 0.060000 -44.831369
v 33.992008 0.060000 -40.952539
v 34.584901 0.020000 -41.119673
v 33.491478 0.020000 -44.998503
v 34.253769 0.020000 -45.213389
v 32.524868 0.020000 -47.292284
v 32.136293 0.020000 -44.616483
v 32.898584 0.020000 -44.831369
v 33.992008 0.020000 -40.952539
f 654 650 649
f 656 657 661
f 655 654 649
f 656 661 662
f 653 652 651
f 658 659 660
f 649 656 657 650
f 650 657 658 651
f 651 658 659 652
f 652 659 660 653
f 653 660 661 654
f 654 661 662 655
f 655 662 656 649

o Lane_025_Fahrstreifen_2_im_Arm_5_INGRESS
# laneID=25
# name=Fahrstreifen 2 im Arm 5
# direction=INGRESS
# ingressApproach=5
# egressApproach=null
# widthMeters=3.250
# nodeCount=3
# signalGroups=5
# connection targetLane=59 signalGroup=5 connectionID=35 maneuvers=maneuverStraightAllowed
v 30.856602 0.000000 -71.668646
v 27.763398 0.000000 -70.671354
v 30.856602 -0.150000 -71.668646
v 27.763398 -0.150000 -70.671354
v 32.736896 0.000000 -65.836719
v 29.623104 0.000000 -64.903281
v 32.736896 -0.150000 -65.836719
v 29.623104 -0.150000 -64.903281
v 45.495863 0.000000 -19.844394
v 42.364137 0.000000 -18.975606
v 45.495863 -0.150000 -19.844394
v 42.364137 -0.150000 -18.975606
f 663 664 668 667
f 665 669 670 666
f 663 667 669 665
f 664 668 670 666
f 667 668 672 671
f 669 673 674 670
f 667 671 673 669
f 668 672 674 670
f 663 665 666 664
f 671 672 674 673

o Arrow_Lane_025_INGRESS
# parentLane=Lane_025_Fahrstreifen_2_im_Arm_5_INGRESS
# direction=INGRESS
v 37.906056 0.060000 -42.276725
v 36.828759 0.060000 -46.160065
v 37.591937 0.060000 -46.371782
v 35.871689 0.060000 -48.457842
v 35.471999 0.060000 -45.783679
v 36.235177 0.060000 -45.995396
v 37.312474 0.060000 -42.112056
v 37.906056 0.020000 -42.276725
v 36.828759 0.020000 -46.160065
v 37.591937 0.020000 -46.371782
v 35.871689 0.020000 -48.457842
v 35.471999 0.020000 -45.783679
v 36.235177 0.020000 -45.995396
v 37.312474 0.020000 -42.112056
f 680 676 675
f 682 683 687
f 681 680 675
f 682 687 688
f 679 678 677
f 684 685 686
f 675 682 683 676
f 676 683 684 677
f 677 684 685 678
f 678 685 686 679
f 679 686 687 680
f 680 687 688 681
f 681 688 682 675

o Lane_026_Fahrstreifen_3_im_Arm_5_INGRESS
# laneID=26
# name=Fahrstreifen 3 im Arm 5
# direction=INGRESS
# ingressApproach=5
# egressApproach=null
# widthMeters=3.250
# nodeCount=3
# signalGroups=5,17
# connection targetLane=59 signalGroup=5 connectionID=36 maneuvers=maneuverStraightAllowed
# connection targetLane=31 signalGroup=17 connectionID=63 maneuvers=maneuverRightAllowed
v 34.040790 0.000000 -73.015465
v 30.939210 0.000000 -72.044535
v 34.040790 -0.150000 -73.015465
v 30.939210 -0.150000 -72.044535
v 36.210020 0.000000 -66.085980
v 33.089980 0.000000 -65.174020
v 36.210020 -0.150000 -66.085980
v 33.089980 -0.150000 -65.174020
v 48.578123 0.000000 -20.576165
v 45.441877 0.000000 -19.723835
v 48.578123 -0.150000 -20.576165
v 45.441877 -0.150000 -19.723835
f 689 690 694 693
f 691 695 696 692
f 689 693 695 691
f 690 694 696 692
f 693 694 698 697
f 695 699 700 696
f 693 697 699 695
f 694 698 700 696
f 689 691 692 690
f 697 698 700 699

o Arrow_Lane_026_INGRESS
# parentLane=Lane_026_Fahrstreifen_3_im_Arm_5_INGRESS
# direction=INGRESS
v 41.031472 0.060000 -43.323089
v 39.974582 0.060000 -47.212033
v 40.738861 0.060000 -47.419739
v 39.029591 0.060000 -49.514805
v 38.615864 0.060000 -46.842777
v 39.380143 0.060000 -47.050484
v 40.437033 0.060000 -43.161540
v 41.031472 0.020000 -43.323089
v 39.974582 0.020000 -47.212033
v 40.738861 0.020000 -47.419739
v 39.029591 0.020000 -49.514805
v 38.615864 0.020000 -46.842777
v 39.380143 0.020000 -47.050484
v 40.437033 0.020000 -43.161540
f 706 702 701
f 708 709 713
f 707 706 701
f 708 713 714
f 705 704 703
f 710 711 712
f 701 708 709 702
f 702 709 710 703
f 703 710 711 704
f 704 711 712 705
f 705 712 713 706
f 706 713 714 707
f 707 714 708 701

o Lane_027_Fahrstreifen_4_im_Arm_5_EGRESS
# laneID=27
# name=Fahrstreifen 4 im Arm 5
# direction=EGRESS
# ingressApproach=null
# egressApproach=5
# widthMeters=3.250
# nodeCount=3
# signalGroups=none
v 14.947245 0.000000 -66.246647
v 11.852755 0.000000 -65.253353
v 14.947245 -0.150000 -66.246647
v 11.852755 -0.150000 -65.253353
v 15.458054 0.000000 -64.655280
v 12.381946 0.000000 -63.604720
v 15.458054 -0.150000 -64.655280
v 12.381946 -0.150000 -63.604720
v 15.947810 0.000000 -63.303554
v 12.892190 0.000000 -62.196446
v 15.947810 -0.150000 -63.303554
v 12.892190 -0.150000 -62.196446
f 715 716 720 719
f 717 721 722 718
f 715 719 721 717
f 716 720 722 718
f 719 720 724 723
f 721 725 726 722
f 719 723 725 721
f 720 724 726 722
f 715 717 718 716
f 723 724 726 725

o Arrow_Lane_027_EGRESS
# parentLane=Lane_027_Fahrstreifen_4_im_Arm_5_EGRESS
# direction=EGRESS
v 12.597743 0.060000 -67.241579
v 13.829427 0.060000 -63.404411
v 13.075323 0.060000 -63.162353
v 14.877592 0.060000 -61.146732
v 15.170055 0.060000 -63.834736
v 14.415952 0.060000 -63.592679
v 13.184268 0.060000 -67.429846
v 12.597743 0.020000 -67.241579
v 13.829427 0.020000 -63.404411
v 13.075323 0.020000 -63.162353
v 14.877592 0.020000 -61.146732
v 15.170055 0.020000 -63.834736
v 14.415952 0.020000 -63.592679
v 13.184268 0.020000 -67.429846
f 732 728 727
f 734 735 739
f 733 732 727
f 734 739 740
f 731 730 729
f 736 737 738
f 727 734 735 728
f 728 735 736 729
f 729 736 737 730
f 730 737 738 731
f 731 738 739 732
f 732 739 740 733
f 733 740 734 727

o Lane_028_Fahrstreifen_5_im_Arm_5_EGRESS
# laneID=28
# name=Fahrstreifen 5 im Arm 5
# direction=EGRESS
# ingressApproach=null
# egressApproach=5
# widthMeters=3.250
# nodeCount=3
# signalGroups=none
v 12.097047 0.000000 -65.279150
v 8.922953 0.000000 -64.580850
v 12.097047 -0.150000 -65.279150
v 8.922953 -0.150000 -64.580850
v 12.410547 0.000000 -63.854153
v 9.269453 0.000000 -63.005847
v 12.410547 -0.150000 -63.854153
v 9.269453 -0.150000 -63.005847
v 12.927046 0.000000 -62.247265
v 9.832954 0.000000 -61.252735
v 12.927046 -0.150000 -62.247265
v 9.832954 -0.150000 -61.252735
f 741 742 746 745
f 743 747 748 744
f 741 745 747 743
f 742 746 748 744
f 745 746 750 749
f 747 751 752 748
f 745 749 751 747
f 746 750 752 748
f 741 743 744 742
f 749 750 752 751

o Arrow_Lane_028_EGRESS
# parentLane=Lane_028_Fahrstreifen_5_im_Arm_5_EGRESS
# direction=EGRESS
v 9.587250 0.060000 -66.320939
v 10.820467 0.060000 -62.484263
v 10.066460 0.060000 -62.241904
v 11.869535 0.060000 -60.227004
v 12.160923 0.060000 -62.915124
v 11.406917 0.060000 -62.672765
v 10.173700 0.060000 -66.509440
v 9.587250 0.020000 -66.320939
v 10.820467 0.020000 -62.484263
v 10.066460 0.020000 -62.241904
v 11.869535 0.020000 -60.227004
v 12.160923 0.020000 -62.915124
v 11.406917 0.020000 -62.672765
v 10.173700 0.020000 -66.509440
f 758 754 753
f 760 761 765
f 759 758 753
f 760 765 766
f 757 756 755
f 762 763 764
f 753 760 761 754
f 754 761 762 755
f 755 762 763 756
f 756 763 764 757
f 757 764 765 758
f 758 765 766 759
f 759 766 760 753

o Lane_029_Fahrstreifen_6_im_Arm_5_EGRESS
# laneID=29
# name=Fahrstreifen 6 im Arm 5
# direction=EGRESS
# ingressApproach=null
# egressApproach=5
# widthMeters=3.250
# nodeCount=3
# signalGroups=none
v 8.936889 0.000000 -64.616089
v 5.883111 0.000000 -63.503911
v 8.936889 -0.150000 -64.616089
v 5.883111 -0.150000 -63.503911
v 9.520876 0.000000 -63.012599
v 6.479124 0.000000 -61.867401
v 9.520876 -0.150000 -63.012599
v 6.479124 -0.150000 -61.867401
v 10.074508 0.000000 -61.588975
v 7.045492 0.000000 -60.411025
v 10.074508 -0.150000 -61.588975
v 7.045492 -0.150000 -60.411025
f 767 768 772 771
f 769 773 774 770
f 767 771 773 769
f 768 772 774 770
f 771 772 776 775
f 773 777 778 774
f 771 775 777 773
f 772 776 778 774
f 767 769 770 768
f 775 776 778 777

o Arrow_Lane_029_EGRESS
# parentLane=Lane_029_Fahrstreifen_6_im_Arm_5_EGRESS
# direction=EGRESS
v 6.567783 0.060000 -65.472491
v 7.946885 0.060000 -61.685807
v 7.202702 0.060000 -61.414778
v 9.081544 0.060000 -59.470336
v 9.269875 0.060000 -62.167637
v 8.525693 0.060000 -61.896607
v 7.146592 0.060000 -65.683292
v 6.567783 0.020000 -65.472491
v 7.946885 0.020000 -61.685807
v 7.202702 0.020000 -61.414778
v 9.081544 0.020000 -59.470336
v 9.269875 0.020000 -62.167637
v 8.525693 0.020000 -61.896607
v 7.146592 0.020000 -65.683292
f 784 780 779
f 786 787 791
f 785 784 779
f 786 791 792
f 783 782 781
f 788 789 790
f 779 786 787 780
f 780 787 788 781
f 781 788 789 782
f 782 789 790 783
f 783 790 791 784
f 784 791 792 785
f 785 792 786 779

o Lane_030_Fahrstreifen_1_im_Arm_6_INGRESS
# laneID=30
# name=Fahrstreifen 1 im Arm 6
# direction=INGRESS
# ingressApproach=6
# egressApproach=null
# widthMeters=3.250
# nodeCount=7
# signalGroups=3,4
# connection targetLane=34 signalGroup=3 connectionID=29 maneuvers=maneuverRightAllowed
# connection targetLane=59 signalGroup=3 connectionID=30 maneuvers=maneuverRightAllowed
# connection targetLane=27 signalGroup=4 connectionID=31 maneuvers=maneuverLeftAllowed
# connection targetLane=28 signalGroup=4 connectionID=32 maneuvers=maneuverLeftAllowed
# connection targetLane=29 signalGroup=4 connectionID=33 maneuvers=maneuverLeftAllowed
v 33.814222 0.000000 -98.516866
v 35.745778 0.000000 -95.903134
v 33.814222 -0.150000 -98.516866
v 35.745778 -0.150000 -95.903134
v 47.352403 0.000000 -108.521621
v 49.487597 0.000000 -106.058379
v 47.352403 -0.150000 -108.521621
v 49.487597 -0.150000 -106.058379
v 56.286247 0.000000 -117.573016
v 58.793753 0.000000 -115.486984
v 56.286247 -0.150000 -117.573016
v 58.793753 -0.150000 -115.486984
v 66.368423 0.000000 -132.031033
v 69.171577 0.000000 -130.368967
v 66.368423 -0.150000 -132.031033
v 69.171577 -0.150000 -130.368967
v 69.915381 0.000000 -139.163821
v 72.924619 0.000000 -137.916179
v 69.915381 -0.150000 -139.163821
v 72.924619 -0.150000 -137.916179
v 75.154448 0.000000 -154.733026
v 78.305552 0.000000 -153.906974
v 75.154448 -0.150000 -154.733026
v 78.305552 -0.150000 -153.906974
v 84.463680 0.000000 -203.623952
v 87.656320 0.000000 -203.016048
v 84.463680 -0.150000 -203.623952
v 87.656320 -0.150000 -203.016048
f 793 794 798 797
f 795 799 800 796
f 793 797 799 795
f 794 798 800 796
f 797 798 802 801
f 799 803 804 800
f 797 801 803 799
f 798 802 804 800
f 801 802 806 805
f 803 807 808 804
f 801 805 807 803
f 802 806 808 804
f 805 806 810 809
f 807 811 812 808
f 805 809 811 807
f 806 810 812 808
f 809 810 814 813
f 811 815 816 812
f 809 813 815 811
f 810 814 816 812
f 813 814 818 817
f 815 819 820 816
f 813 817 819 815
f 814 818 820 816
f 793 795 796 794
f 817 818 820 819

o Arrow_Lane_030_INGRESS
# parentLane=Lane_030_Fahrstreifen_1_im_Arm_6_INGRESS
# direction=INGRESS
v 73.839700 0.060000 -146.696479
v 72.554415 0.060000 -142.876932
v 71.803775 0.060000 -143.129524
v 72.058576 0.060000 -140.437688
v 73.888887 0.060000 -142.427879
v 73.138247 0.060000 -142.680471
v 74.423532 0.060000 -146.500019
v 73.839700 0.020000 -146.696479
v 72.554415 0.020000 -142.876932
v 71.803775 0.020000 -143.129524
v 72.058576 0.020000 -140.437688
v 73.888887 0.020000 -142.427879
v 73.138247 0.020000 -142.680471
v 74.423532 0.020000 -146.500019
f 826 822 821
f 828 829 833
f 827 826 821
f 828 833 834
f 825 824 823
f 830 831 832
f 821 828 829 822
f 822 829 830 823
f 823 830 831 824
f 824 831 832 825
f 825 832 833 826
f 826 833 834 827
f 827 834 828 821

o Lane_031_Fahrstreifen_2_im_Arm_6_EGRESS
# laneID=31
# name=Fahrstreifen 2 im Arm 6
# direction=EGRESS
# ingressApproach=null
# egressApproach=6
# widthMeters=3.250
# nodeCount=3
# signalGroups=none
v 38.694008 0.000000 -91.251958
v 40.965992 0.000000 -88.928042
v 38.694008 -0.150000 -91.251958
v 40.965992 -0.150000 -88.928042
v 42.273614 0.000000 -94.751573
v 44.546386 0.000000 -92.428427
v 42.273614 -0.150000 -94.751573
v 44.546386 -0.150000 -92.428427
v 65.583221 0.000000 -117.571188
v 67.856779 0.000000 -115.248812
v 65.583221 -0.150000 -117.571188
v 67.856779 -0.150000 -115.248812
f 835 836 840 839
f 837 841 842 838
f 835 839 841 837
f 836 840 842 838
f 839 840 844 843
f 841 845 846 842
f 839 843 845 841
f 840 844 846 842
f 835 837 838 836
f 843 844 846 845

o Arrow_Lane_031_EGRESS
# parentLane=Lane_031_Fahrstreifen_2_im_Arm_6_EGRESS
# direction=EGRESS
v 51.169272 0.060000 -100.755140
v 54.049019 0.060000 -103.574352
v 54.603068 0.060000 -103.008407
v 55.598562 0.060000 -105.522346
v 53.064044 0.060000 -104.580477
v 53.618093 0.060000 -104.014532
v 50.738345 0.060000 -101.195320
v 51.169272 0.020000 -100.755140
v 54.049019 0.020000 -103.574352
v 54.603068 0.020000 -103.008407
v 55.598562 0.020000 -105.522346
v 53.064044 0.020000 -104.580477
v 53.618093 0.020000 -104.014532
v 50.738345 0.020000 -101.195320
f 852 848 847
f 854 855 859
f 853 852 847
f 854 859 860
f 851 850 849
f 856 857 858
f 847 854 855 848
f 848 855 856 849
f 849 856 857 850
f 850 857 858 851
f 851 858 859 852
f 852 859 860 853
f 853 860 854 847

o Lane_032_Fahrstreifen_1_im_Arm_7_INGRESS
# laneID=32
# name=Fahrstreifen 1 im Arm 7
# direction=INGRESS
# ingressApproach=7
# egressApproach=null
# widthMeters=3.250
# nodeCount=7
# signalGroups=1,2
# connection targetLane=28 signalGroup=1 connectionID=26 maneuvers=maneuverStraightAllowed
# connection targetLane=27 signalGroup=1 connectionID=27 maneuvers=maneuverStraightAllowed
# connection targetLane=31 signalGroup=2 connectionID=28 maneuvers=maneuverLeftAllowed
v -0.449502 0.000000 -87.128311
v 2.569502 0.000000 -88.331689
v -0.449502 -0.150000 -87.128311
v 2.569502 -0.150000 -88.331689
v -2.737664 0.000000 -92.868787
v 0.297664 0.000000 -94.031213
v -2.737664 -0.150000 -92.868787
v 0.297664 -0.150000 -94.031213
v -3.785319 0.000000 -95.719618
v -0.734681 0.000000 -96.840382
v -3.785319 -0.150000 -95.719618
v -0.734681 -0.150000 -96.840382
v -10.735352 0.000000 -114.642480
v -7.704648 0.000000 -115.817520
v -10.735352 -0.150000 -114.642480
v -7.704648 -0.150000 -115.817520
v -20.199447 0.000000 -137.814571
v -17.240553 0.000000 -139.165429
v -20.199447 -0.150000 -137.814571
v -17.240553 -0.150000 -139.165429
v -55.772168 0.000000 -208.050965
v -52.887832 0.000000 -209.549035
v -55.772168 -0.150000 -208.050965
v -52.887832 -0.150000 -209.549035
v -107.564362 0.000000 -305.326304
v -104.695638 0.000000 -306.853696
v -107.564362 -0.150000 -305.326304
v -104.695638 -0.150000 -306.853696
f 861 862 866 865
f 863 867 868 864
f 861 865 867 863
f 862 866 868 864
f 865 866 870 869
f 867 871 872 868
f 865 869 871 867
f 866 870 872 868
f 869 870 874 873
f 871 875 876 872
f 869 873 875 871
f 870 874 876 872
f 873 874 878 877
f 875 879 880 876
f 873 877 879 875
f 874 878 880 876
f 877 878 882 881
f 879 883 884 880
f 877 881 883 879
f 878 882 884 880
f 881 882 886 885
f 883 887 888 884
f 881 885 887 883
f 882 886 888 884
f 861 863 864 862
f 885 886 888 887

o Arrow_Lane_032_INGRESS
# parentLane=Lane_032_Fahrstreifen_1_im_Arm_7_INGRESS
# direction=INGRESS
v -50.859457 0.060000 -201.265923
v -49.038597 0.060000 -197.670736
v -49.745145 0.060000 -197.312890
v -47.647818 0.060000 -195.606397
v -47.782512 0.060000 -198.306907
v -48.489060 0.060000 -197.949061
v -50.309919 0.060000 -201.544248
v -50.859457 0.020000 -201.265923
v -49.038597 0.020000 -197.670736
v -49.745145 0.020000 -197.312890
v -47.647818 0.020000 -195.606397
v -47.782512 0.020000 -198.306907
v -48.489060 0.020000 -197.949061
v -50.309919 0.020000 -201.544248
f 894 890 889
f 896 897 901
f 895 894 889
f 896 901 902
f 893 892 891
f 898 899 900
f 889 896 897 890
f 890 897 898 891
f 891 898 899 892
f 892 899 900 893
f 893 900 901 894
f 894 901 902 895
f 895 902 896 889

o Lane_033_Fahrstreifen_2_im_Arm_7_INGRESS
# laneID=33
# name=Fahrstreifen 2 im Arm 7
# direction=INGRESS
# ingressApproach=7
# egressApproach=null
# widthMeters=3.250
# nodeCount=3
# signalGroups=1
# connection targetLane=29 signalGroup=1 connectionID=25 maneuvers=maneuverStraightAllowed
v -3.296944 0.000000 -85.521935
v -0.283056 0.000000 -86.738065
v -3.296944 -0.150000 -85.521935
v -0.283056 -0.150000 -86.738065
v -5.333729 0.000000 -90.569619
v -1.926271 0.000000 -90.810381
v -5.333729 -0.150000 -90.569619
v -1.926271 -0.150000 -90.810381
v -3.827474 0.000000 -96.660128
v -0.672526 0.000000 -95.879872
v -3.827474 -0.150000 -96.660128
v -0.672526 -0.150000 -95.879872
f 903 904 908 907
f 905 909 910 906
f 903 907 909 905
f 904 908 910 906
f 907 908 912 911
f 909 913 914 910
f 907 911 913 909
f 908 912 914 910
f 903 905 906 904
f 911 912 914 913

o Arrow_Lane_033_INGRESS
# parentLane=Lane_033_Fahrstreifen_2_im_Arm_7_INGRESS
# direction=INGRESS
v -3.048998 0.060000 -94.322182
v -4.016515 0.060000 -90.410045
v -4.785352 0.060000 -90.600188
v -4.310518 0.060000 -87.938340
v -2.649695 0.060000 -90.072014
v -3.418531 0.060000 -90.262157
v -2.451014 0.060000 -94.174293
v -3.048998 0.020000 -94.322182
v -4.016515 0.020000 -90.410045
v -4.785352 0.020000 -90.600188
v -4.310518 0.020000 -87.938340
v -2.649695 0.020000 -90.072014
v -3.418531 0.020000 -90.262157
v -2.451014 0.020000 -94.174293
f 920 916 915
f 922 923 927
f 921 920 915
f 922 927 928
f 919 918 917
f 924 925 926
f 915 922 923 916
f 916 923 924 917
f 917 924 925 918
f 918 925 926 919
f 919 926 927 920
f 920 927 928 921
f 921 928 922 915

o Lane_034_Fahrstreifen_3_im_Arm_7_EGRESS
# laneID=34
# name=Fahrstreifen 3 im Arm 7
# direction=EGRESS
# ingressApproach=null
# egressApproach=7
# widthMeters=3.250
# nodeCount=3
# signalGroups=none
v 14.467968 0.000000 -97.994699
v 17.492032 0.000000 -99.185301
v 14.467968 -0.150000 -97.994699
v 17.492032 -0.150000 -99.185301
v 10.845483 0.000000 -107.195610
v 13.854517 0.000000 -108.424390
v 10.845483 -0.150000 -107.195610
v 13.854517 -0.150000 -108.424390
v 2.123478 0.000000 -127.806717
v 5.116522 0.000000 -129.073283
v 2.123478 -0.150000 -127.806717
v 5.116522 -0.150000 -129.073283
f 929 930 934 933
f 931 935 936 932
f 929 933 935 931
f 930 934 936 932
f 933 934 938 937
f 935 939 940 936
f 933 937 939 935
f 934 938 940 936
f 929 931 932 930
f 937 938 940 939

o Arrow_Lane_034_EGRESS
# parentLane=Lane_034_Fahrstreifen_3_im_Arm_7_EGRESS
# direction=EGRESS
v 11.466018 0.060000 -110.689278
v 9.895475 0.060000 -114.400652
v 10.624857 0.060000 -114.709304
v 8.649236 0.060000 -116.555333
v 8.598797 0.060000 -113.851936
v 9.328178 0.060000 -114.160589
v 10.898721 0.060000 -110.449215
v 11.466018 0.020000 -110.689278
v 9.895475 0.020000 -114.400652
v 10.624857 0.020000 -114.709304
v 8.649236 0.020000 -116.555333
v 8.598797 0.020000 -113.851936
v 9.328178 0.020000 -114.160589
v 10.898721 0.020000 -110.449215
f 946 942 941
f 948 949 953
f 947 946 941
f 948 953 954
f 945 944 943
f 950 951 952
f 941 948 949 942
f 942 949 950 943
f 943 950 951 944
f 944 951 952 945
f 945 952 953 946
f 946 953 954 947
f 947 954 948 941

o Lane_035_Gehweg_oder_Radweg_0_im_Arm_1_UNSPECIFIED
# laneID=35
# name=Gehweg oder Radweg 0 im Arm 1
# direction=UNSPECIFIED
# ingressApproach=null
# egressApproach=null
# widthMeters=3.250
# nodeCount=2
# signalGroups=19,20
# connection targetLane=36 signalGroup=19 connectionID=1 maneuvers=none
# connection targetLane=36 signalGroup=20 connectionID=67 maneuvers=none
v 24.340580 0.000000 25.982984
v 21.199420 0.000000 26.817016
v 24.340580 -0.150000 25.982984
v 21.199420 -0.150000 26.817016
v 25.110580 0.000000 28.882984
v 21.969420 0.000000 29.717016
v 25.110580 -0.150000 28.882984
v 21.969420 -0.150000 29.717016
f 955 956 960 959
f 957 961 962 958
f 955 959 961 957
f 956 960 962 958
f 955 957 958 956
f 959 960 962 961

o Lane_036_Gehweg_oder_Radweg_0_im_Arm_1_UNSPECIFIED
# laneID=36
# name=Gehweg oder Radweg 0 im Arm 1
# direction=UNSPECIFIED
# ingressApproach=null
# egressApproach=null
# widthMeters=3.250
# nodeCount=2
# signalGroups=19,20
# connection targetLane=35 signalGroup=19 connectionID=2 maneuvers=none
# connection targetLane=35 signalGroup=20 connectionID=68 maneuvers=none
v 18.626118 0.000000 16.930275
v 21.873882 0.000000 16.809725
v 18.626118 -0.150000 16.930275
v 21.873882 -0.150000 16.809725
v 18.456118 0.000000 12.350275
v 21.703882 0.000000 12.229725
v 18.456118 -0.150000 12.350275
v 21.703882 -0.150000 12.229725
f 963 964 968 967
f 965 969 970 966
f 963 967 969 965
f 964 968 970 966
f 963 965 966 964
f 967 968 970 969

o Lane_037_Gehweg_oder_Radweg_0_im_Arm_1_UNSPECIFIED
# laneID=37
# name=Gehweg oder Radweg 0 im Arm 1
# direction=UNSPECIFIED
# ingressApproach=null
# egressApproach=null
# widthMeters=3.250
# nodeCount=2
# signalGroups=21,22
# connection targetLane=38 signalGroup=21 connectionID=3 maneuvers=none
# connection targetLane=38 signalGroup=22 connectionID=69 maneuvers=none
v 20.586373 0.000000 8.912495
v 17.533627 0.000000 10.027505
v 20.586373 -0.150000 8.912495
v 17.533627 -0.150000 10.027505
v 21.616373 0.000000 11.732495
v 18.563627 0.000000 12.847505
v 21.616373 -0.150000 11.732495
v 18.563627 -0.150000 12.847505
f 971 972 976 975
f 973 977 978 974
f 971 975 977 973
f 972 976 978 974
f 971 973 974 972
f 975 976 978 977

o Lane_038_Gehweg_oder_Radweg_0_im_Arm_1_UNSPECIFIED
# laneID=38
# name=Gehweg oder Radweg 0 im Arm 1
# direction=UNSPECIFIED
# ingressApproach=null
# egressApproach=null
# widthMeters=3.250
# nodeCount=2
# signalGroups=21,22
# connection targetLane=37 signalGroup=21 connectionID=4 maneuvers=none
# connection targetLane=37 signalGroup=22 connectionID=70 maneuvers=none
v 14.260939 0.000000 1.030089
v 17.319061 0.000000 -0.070089
v 14.260939 -0.150000 1.030089
v 17.319061 -0.150000 -0.070089
v 13.670939 0.000000 -0.609911
v 16.729061 0.000000 -1.710089
v 13.670939 -0.150000 -0.609911
v 16.729061 -0.150000 -1.710089
f 979 980 984 983
f 981 985 986 982
f 979 983 985 981
f 980 984 986 982
f 979 981 982 980
f 983 984 986 985

o Lane_039_Gehweg_oder_Radweg_0_im_Arm_2_UNSPECIFIED
# laneID=39
# name=Gehweg oder Radweg 0 im Arm 2
# direction=UNSPECIFIED
# ingressApproach=null
# egressApproach=null
# widthMeters=3.250
# nodeCount=2
# signalGroups=23,24
# connection targetLane=40 signalGroup=23 connectionID=5 maneuvers=none
# connection targetLane=40 signalGroup=24 connectionID=71 maneuvers=none
v 20.025227 0.000000 -6.382222
v 18.974773 0.000000 -9.457778
v 20.025227 -0.150000 -6.382222
v 18.974773 -0.150000 -9.457778
v 17.185227 0.000000 -5.412222
v 16.134773 0.000000 -8.487778
v 17.185227 -0.150000 -5.412222
v 16.134773 -0.150000 -8.487778
f 987 988 992 991
f 989 993 994 990
f 987 991 993 989
f 988 992 994 990
f 987 989 990 988
f 991 992 994 993

o Lane_040_Gehweg_oder_Radweg_0_im_Arm_2_UNSPECIFIED
# laneID=40
# name=Gehweg oder Radweg 0 im Arm 2
# direction=UNSPECIFIED
# ingressApproach=null
# egressApproach=null
# widthMeters=3.250
# nodeCount=2
# signalGroups=23,24
# connection targetLane=39 signalGroup=23 connectionID=6 maneuvers=none
# connection targetLane=39 signalGroup=24 connectionID=72 maneuvers=none
v 30.361683 0.000000 -13.319029
v 31.278317 0.000000 -10.200971
v 30.361683 -0.150000 -13.319029
v 31.278317 -0.150000 -10.200971
v 34.511683 0.000000 -14.539029
v 35.428317 0.000000 -11.420971
v 34.511683 -0.150000 -14.539029
v 35.428317 -0.150000 -11.420971
f 995 996 1000 999
f 997 1001 1002 998
f 995 999 1001 997
f 996 1000 1002 998
f 995 997 998 996
f 999 1000 1002 1001

o Lane_041_Gehweg_oder_Radweg_0_im_Arm_2_UNSPECIFIED
# laneID=41
# name=Gehweg oder Radweg 0 im Arm 2
# direction=UNSPECIFIED
# ingressApproach=null
# egressApproach=null
# widthMeters=3.250
# nodeCount=2
# signalGroups=25,26
# connection targetLane=42 signalGroup=25 connectionID=7 maneuvers=none
# connection targetLane=42 signalGroup=26 connectionID=74 maneuvers=none
v 40.128611 0.000000 -11.795983
v 39.751389 0.000000 -15.024017
v 40.128611 -0.150000 -11.795983
v 39.751389 -0.150000 -15.024017
v 34.908611 0.000000 -11.185983
v 34.531389 0.000000 -14.414017
v 34.908611 -0.150000 -11.185983
v 34.531389 -0.150000 -14.414017
f 1003 1004 1008 1007
f 1005 1009 1010 1006
f 1003 1007 1009 1005
f 1004 1008 1010 1006
f 1003 1005 1006 1004
f 1007 1008 1010 1009

o Lane_042_Gehweg_oder_Radweg_0_im_Arm_2_UNSPECIFIED
# laneID=42
# name=Gehweg oder Radweg 0 im Arm 2
# direction=UNSPECIFIED
# ingressApproach=null
# egressApproach=null
# widthMeters=3.250
# nodeCount=2
# signalGroups=25,26
# connection targetLane=41 signalGroup=25 connectionID=8 maneuvers=none
# connection targetLane=41 signalGroup=26 connectionID=73 maneuvers=none
v 49.511858 0.000000 -16.467456
v 49.988142 0.000000 -13.252544
v 49.511858 -0.150000 -16.467456
v 49.988142 -0.150000 -13.252544
v 52.481858 0.000000 -16.907456
v 52.958142 0.000000 -13.692544
v 52.481858 -0.150000 -16.907456
v 52.958142 -0.150000 -13.692544
f 1011 1012 1016 1015
f 1013 1017 1018 1014
f 1011 1015 1017 1013
f 1012 1016 1018 1014
f 1011 1013 1014 1012
f 1015 1016 1018 1017

o Lane_043_Gehweg_oder_Radweg_0_im_Arm_3_UNSPECIFIED
# laneID=43
# name=Gehweg oder Radweg 0 im Arm 3
# direction=UNSPECIFIED
# ingressApproach=null
# egressApproach=null
# widthMeters=3.250
# nodeCount=2
# signalGroups=27,28
# connection targetLane=44 signalGroup=27 connectionID=9 maneuvers=none
# connection targetLane=44 signalGroup=28 connectionID=75 maneuvers=none
v 56.089444 0.000000 -9.793818
v 59.310556 0.000000 -10.226182
v 56.089444 -0.150000 -9.793818
v 59.310556 -0.150000 -10.226182
v 55.689444 0.000000 -12.773818
v 58.910556 0.000000 -13.206182
v 55.689444 -0.150000 -12.773818
v 58.910556 -0.150000 -13.206182
f 1019 1020 1024 1023
f 1021 1025 1026 1022
f 1019 1023 1025 1021
f 1020 1024 1026 1022
f 1019 1021 1022 1020
f 1023 1024 1026 1025

o Lane_044_Gehweg_oder_Radweg_0_im_Arm_3_UNSPECIFIED
# laneID=44
# name=Gehweg oder Radweg 0 im Arm 3
# direction=UNSPECIFIED
# ingressApproach=null
# egressApproach=null
# widthMeters=3.250
# nodeCount=2
# signalGroups=27,28
# connection targetLane=43 signalGroup=27 connectionID=10 maneuvers=none
# connection targetLane=43 signalGroup=28 connectionID=76 maneuvers=none
v 60.474627 0.000000 -1.559974
v 57.305373 0.000000 -0.840026
v 60.474627 -0.150000 -1.559974
v 57.305373 -0.150000 -0.840026
v 61.444627 0.000000 2.710026
v 58.275373 0.000000 3.429974
v 61.444627 -0.150000 2.710026
v 58.275373 -0.150000 3.429974
f 1027 1028 1032 1031
f 1029 1033 1034 1030
f 1027 1031 1033 1029
f 1028 1032 1034 1030
f 1027 1029 1030 1028
f 1031 1032 1034 1033

o Lane_045_Gehweg_oder_Radweg_0_im_Arm_3_UNSPECIFIED
# laneID=45
# name=Gehweg oder Radweg 0 im Arm 3
# direction=UNSPECIFIED
# ingressApproach=null
# egressApproach=null
# widthMeters=3.250
# nodeCount=2
# signalGroups=29,30
# connection targetLane=46 signalGroup=29 connectionID=11 maneuvers=none
# connection targetLane=46 signalGroup=30 connectionID=78 maneuvers=none
v 59.097771 0.000000 7.454705
v 62.282229 0.000000 6.805295
v 59.097771 -0.150000 7.454705
v 62.282229 -0.150000 6.805295
v 58.267771 0.000000 3.384705
v 61.452229 0.000000 2.735295
v 58.267771 -0.150000 3.384705
v 61.452229 -0.150000 2.735295
f 1035 1036 1040 1039
f 1037 1041 1042 1038
f 1035 1039 1041 1037
f 1036 1040 1042 1038
f 1035 1037 1038 1036
f 1039 1040 1042 1041

o Lane_046_Gehweg_oder_Radweg_0_im_Arm_3_UNSPECIFIED
# laneID=46
# name=Gehweg oder Radweg 0 im Arm 3
# direction=UNSPECIFIED
# ingressApproach=null
# egressApproach=null
# widthMeters=3.250
# nodeCount=2
# signalGroups=29,30
# connection targetLane=45 signalGroup=29 connectionID=12 maneuvers=none
# connection targetLane=45 signalGroup=30 connectionID=77 maneuvers=none
v 63.463271 0.000000 16.465108
v 60.236729 0.000000 16.854892
v 63.463271 -0.150000 16.465108
v 60.236729 -0.150000 16.854892
v 63.823271 0.000000 19.445108
v 60.596729 0.000000 19.834892
v 63.823271 -0.150000 19.445108
v 60.596729 -0.150000 19.834892
f 1043 1044 1048 1047
f 1045 1049 1050 1046
f 1043 1047 1049 1045
f 1044 1048 1050 1046
f 1043 1045 1046 1044
f 1047 1048 1050 1049

o Lane_047_Gehweg_oder_Radweg_0_im_Arm_4_UNSPECIFIED
# laneID=47
# name=Gehweg oder Radweg 0 im Arm 4
# direction=UNSPECIFIED
# ingressApproach=null
# egressApproach=null
# widthMeters=3.250
# nodeCount=2
# signalGroups=15,31
# connection targetLane=48 signalGroup=31 connectionID=13 maneuvers=none
# connection targetLane=48 signalGroup=15 connectionID=80 maneuvers=none
v 46.375926 0.000000 26.529614
v 45.124074 0.000000 23.530386
v 46.375926 -0.150000 26.529614
v 45.124074 -0.150000 23.530386
v 42.925926 0.000000 27.969614
v 41.674074 0.000000 24.970386
v 42.925926 -0.150000 27.969614
v 41.674074 -0.150000 24.970386
f 1051 1052 1056 1055
f 1053 1057 1058 1054
f 1051 1055 1057 1053
f 1052 1056 1058 1054
f 1051 1053 1054 1052
f 1055 1056 1058 1057

o Lane_048_Gehweg_oder_Radweg_0_im_Arm_4_UNSPECIFIED
# laneID=48
# name=Gehweg oder Radweg 0 im Arm 4
# direction=UNSPECIFIED
# ingressApproach=null
# egressApproach=null
# widthMeters=3.250
# nodeCount=2
# signalGroups=31,32
# connection targetLane=47 signalGroup=31 connectionID=14 maneuvers=none
# connection targetLane=47 signalGroup=32 connectionID=79 maneuvers=none
v 57.211282 0.000000 21.584147
v 57.708718 0.000000 24.795853
v 57.211282 -0.150000 21.584147
v 57.708718 -0.150000 24.795853
v 60.181282 0.000000 21.124147
v 60.678718 0.000000 24.335853
v 60.181282 -0.150000 21.124147
v 60.678718 -0.150000 24.335853
f 1059 1060 1064 1063
f 1061 1065 1066 1062
f 1059 1063 1065 1061
f 1060 1064 1066 1062
f 1059 1061 1062 1060
f 1063 1064 1066 1065

o Lane_049_Gehweg_oder_Radweg_0_im_Arm_4_UNSPECIFIED
# laneID=49
# name=Gehweg oder Radweg 0 im Arm 4
# direction=UNSPECIFIED
# ingressApproach=null
# egressApproach=null
# widthMeters=3.250
# nodeCount=2
# signalGroups=33,34
# connection targetLane=50 signalGroup=33 connectionID=15 maneuvers=none
# connection targetLane=50 signalGroup=34 connectionID=81 maneuvers=none
v 37.767686 0.000000 26.462919
v 38.932314 0.000000 29.497081
v 37.767686 -0.150000 26.462919
v 38.932314 -0.150000 29.497081
v 41.727686 0.000000 24.942919
v 42.892314 0.000000 27.977081
v 41.727686 -0.150000 24.942919
v 42.892314 -0.150000 27.977081
f 1067 1068 1072 1071
f 1069 1073 1074 1070
f 1067 1071 1073 1069
f 1068 1072 1074 1070
f 1067 1069 1070 1068
f 1071 1072 1074 1073

o Lane_050_Gehweg_oder_Radweg_0_im_Arm_4_UNSPECIFIED
# laneID=50
# name=Gehweg oder Radweg 0 im Arm 4
# direction=UNSPECIFIED
# ingressApproach=null
# egressApproach=null
# widthMeters=3.250
# nodeCount=2
# signalGroups=33,34
# connection targetLane=49 signalGroup=33 connectionID=16 maneuvers=none
# connection targetLane=49 signalGroup=34 connectionID=82 maneuvers=none
v 30.070068 0.000000 32.566116
v 29.009932 0.000000 29.493884
v 30.070068 -0.150000 32.566116
v 29.009932 -0.150000 29.493884
v 27.230068 0.000000 33.546116
v 26.169932 0.000000 30.473884
v 27.230068 -0.150000 33.546116
v 26.169932 -0.150000 30.473884
f 1075 1076 1080 1079
f 1077 1081 1082 1078
f 1075 1079 1081 1077
f 1076 1080 1082 1078
f 1075 1077 1078 1076
f 1079 1080 1082 1081

o Lane_051_Gehweg_oder_Radweg_0_im_Arm_7_UNSPECIFIED
# laneID=51
# name=Gehweg oder Radweg 0 im Arm 7
# direction=UNSPECIFIED
# ingressApproach=null
# egressApproach=null
# widthMeters=3.250
# nodeCount=2
# signalGroups=35,36
# connection targetLane=52 signalGroup=35 connectionID=17 maneuvers=none
# connection targetLane=52 signalGroup=36 connectionID=83 maneuvers=none
v -1.753497 0.000000 -79.340887
v -3.406503 0.000000 -82.139113
v -1.753497 -0.150000 -79.340887
v -3.406503 -0.150000 -82.139113
v -4.343497 0.000000 -77.810887
v -5.996503 0.000000 -80.609113
v -4.343497 -0.150000 -77.810887
v -5.996503 -0.150000 -80.609113
f 1083 1084 1088 1087
f 1085 1089 1090 1086
f 1083 1087 1089 1085
f 1084 1088 1090 1086
f 1083 1085 1086 1084
f 1087 1088 1090 1089

o Lane_052_Gehweg_oder_Radweg_0_im_Arm_7_UNSPECIFIED
# laneID=52
# name=Gehweg oder Radweg 0 im Arm 7
# direction=UNSPECIFIED
# ingressApproach=null
# egressApproach=null
# widthMeters=3.250
# nodeCount=2
# signalGroups=35,36
# connection targetLane=51 signalGroup=35 connectionID=18 maneuvers=none
# connection targetLane=51 signalGroup=36 connectionID=84 maneuvers=none
v 2.866807 0.000000 -86.222999
v 4.573193 0.000000 -83.457001
v 2.866807 -0.150000 -86.222999
v 4.573193 -0.150000 -83.457001
v 8.896807 0.000000 -89.942999
v 10.603193 0.000000 -87.177001
v 8.896807 -0.150000 -89.942999
v 10.603193 -0.150000 -87.177001
f 1091 1092 1096 1095
f 1093 1097 1098 1094
f 1091 1095 1097 1093
f 1092 1096 1098 1094
f 1091 1093 1094 1092
f 1095 1096 1098 1097

o Lane_053_Gehweg_oder_Radweg_0_im_Arm_7_UNSPECIFIED
# laneID=53
# name=Gehweg oder Radweg 0 im Arm 7
# direction=UNSPECIFIED
# ingressApproach=null
# egressApproach=null
# widthMeters=3.250
# nodeCount=2
# signalGroups=37,38
# connection targetLane=54 signalGroup=37 connectionID=19 maneuvers=none
# connection targetLane=54 signalGroup=38 connectionID=86 maneuvers=none
v 17.056815 0.000000 -91.665219
v 15.203185 0.000000 -94.334781
v 17.056815 -0.150000 -91.665219
v 15.203185 -0.150000 -94.334781
v 10.676815 0.000000 -87.235219
v 8.823185 0.000000 -89.904781
v 10.676815 -0.150000 -87.235219
v 8.823185 -0.150000 -89.904781
f 1099 1100 1104 1103
f 1101 1105 1106 1102
f 1099 1103 1105 1101
f 1100 1104 1106 1102
f 1099 1101 1102 1100
f 1103 1104 1106 1105

o Lane_054_Gehweg_oder_Radweg_0_im_Arm_7_UNSPECIFIED
# laneID=54
# name=Gehweg oder Radweg 0 im Arm 7
# direction=UNSPECIFIED
# ingressApproach=null
# egressApproach=null
# widthMeters=3.250
# nodeCount=2
# signalGroups=37,38
# connection targetLane=53 signalGroup=37 connectionID=20 maneuvers=none
# connection targetLane=53 signalGroup=38 connectionID=85 maneuvers=none
v 21.650722 0.000000 -100.246751
v 23.849278 0.000000 -97.853249
v 21.650722 -0.150000 -100.246751
v 23.849278 -0.150000 -97.853249
v 23.860722 0.000000 -102.276751
v 26.059278 0.000000 -99.883249
v 23.860722 -0.150000 -102.276751
v 26.059278 -0.150000 -99.883249
f 1107 1108 1112 1111
f 1109 1113 1114 1110
f 1107 1111 1113 1109
f 1108 1112 1114 1110
f 1107 1109 1110 1108
f 1111 1112 1114 1113

o Lane_055_Gehweg_oder_Radweg_0_im_Arm_6_UNSPECIFIED
# laneID=55
# name=Gehweg oder Radweg 0 im Arm 6
# direction=UNSPECIFIED
# ingressApproach=null
# egressApproach=null
# widthMeters=3.250
# nodeCount=2
# signalGroups=39,40
# connection targetLane=56 signalGroup=39 connectionID=21 maneuvers=none
# connection targetLane=56 signalGroup=40 connectionID=88 maneuvers=none
v 28.229670 0.000000 -97.458080
v 31.170330 0.000000 -98.841920
v 28.229670 -0.150000 -97.458080
v 31.170330 -0.150000 -98.841920
v 26.949670 0.000000 -100.178080
v 29.890330 0.000000 -101.561920
v 26.949670 -0.150000 -100.178080
v 29.890330 -0.150000 -101.561920
f 1115 1116 1120 1119
f 1117 1121 1122 1118
f 1115 1119 1121 1117
f 1116 1120 1122 1118
f 1115 1117 1118 1116
f 1119 1120 1122 1121

o Lane_056_Gehweg_oder_Radweg_0_im_Arm_6_UNSPECIFIED
# laneID=56
# name=Gehweg oder Radweg 0 im Arm 6
# direction=UNSPECIFIED
# ingressApproach=null
# egressApproach=null
# widthMeters=3.250
# nodeCount=2
# signalGroups=39,40
# connection targetLane=55 signalGroup=39 connectionID=22 maneuvers=none
# connection targetLane=55 signalGroup=40 connectionID=87 maneuvers=none
v 34.142915 0.000000 -92.547409
v 31.257085 0.000000 -91.052591
v 34.142915 -0.150000 -92.547409
v 31.257085 -0.150000 -91.052591
v 34.862915 0.000000 -91.157409
v 31.977085 0.000000 -89.662591
v 34.862915 -0.150000 -91.157409
v 31.977085 -0.150000 -89.662591
f 1123 1124 1128 1127
f 1125 1129 1130 1126
f 1123 1127 1129 1125
f 1124 1128 1130 1126
f 1123 1125 1126 1124
f 1127 1128 1130 1129

o Lane_057_Gehweg_oder_Radweg_0_im_Arm_6_UNSPECIFIED
# laneID=57
# name=Gehweg oder Radweg 0 im Arm 6
# direction=UNSPECIFIED
# ingressApproach=null
# egressApproach=null
# widthMeters=3.250
# nodeCount=2
# signalGroups=41,42
# connection targetLane=58 signalGroup=41 connectionID=23 maneuvers=none
# connection targetLane=58 signalGroup=42 connectionID=90 maneuvers=none
v 32.954286 0.000000 -87.778020
v 35.845714 0.000000 -89.261980
v 32.954286 -0.150000 -87.778020
v 35.845714 -0.150000 -89.261980
v 31.984286 0.000000 -89.668020
v 34.875714 0.000000 -91.151980
v 31.984286 -0.150000 -89.668020
v 34.875714 -0.150000 -91.151980
f 1131 1132 1136 1135
f 1133 1137 1138 1134
f 1131 1135 1137 1133
f 1132 1136 1138 1134
f 1131 1133 1134 1132
f 1135 1136 1138 1137

o Lane_058_Gehweg_oder_Radweg_0_im_Arm_6_UNSPECIFIED
# laneID=58
# name=Gehweg oder Radweg 0 im Arm 6
# direction=UNSPECIFIED
# ingressApproach=null
# egressApproach=null
# widthMeters=3.250
# nodeCount=2
# signalGroups=41,42
# connection targetLane=57 signalGroup=41 connectionID=24 maneuvers=none
# connection targetLane=57 signalGroup=42 connectionID=89 maneuvers=none
v 38.671767 0.000000 -83.362703
v 36.248233 0.000000 -81.197297
v 38.671767 -0.150000 -83.362703
v 36.248233 -0.150000 -81.197297
v 40.181767 0.000000 -81.672703
v 37.758233 0.000000 -79.507297
v 40.181767 -0.150000 -81.672703
v 37.758233 -0.150000 -79.507297
f 1139 1140 1144 1143
f 1141 1145 1146 1142
f 1139 1143 1145 1141
f 1140 1144 1146 1142
f 1139 1141 1142 1140
f 1143 1144 1146 1145

o Lane_059_Fahrstreifen_4_im_Arm_7_EGRESS
# laneID=59
# name=Fahrstreifen 4 im Arm 7
# direction=EGRESS
# ingressApproach=null
# egressApproach=7
# widthMeters=3.250
# nodeCount=3
# signalGroups=none
v 17.502931 0.000000 -100.094407
v 20.557069 0.000000 -101.205593
v 17.502931 -0.150000 -100.094407
v 20.557069 -0.150000 -101.205593
v 15.792817 0.000000 -104.794717
v 18.847183 0.000000 -105.905283
v 15.792817 -0.150000 -104.794717
v 18.847183 -0.150000 -105.905283
v 5.912705 0.000000 -131.985028
v 8.967295 0.000000 -133.094972
v 5.912705 -0.150000 -131.985028
v 8.967295 -0.150000 -133.094972
f 1147 1148 1152 1151
f 1149 1153 1154 1150
f 1147 1151 1153 1149
f 1148 1152 1154 1150
f 1151 1152 1156 1155
f 1153 1157 1158 1154
f 1151 1155 1157 1153
f 1152 1156 1158 1154
f 1147 1149 1150 1148
f 1155 1156 1158 1157

o Arrow_Lane_059_EGRESS
# parentLane=Lane_059_Fahrstreifen_4_im_Arm_7_EGRESS
# direction=EGRESS
v 14.633468 0.060000 -113.645250
v 13.257138 0.060000 -117.432942
v 14.001518 0.060000 -117.703427
v 12.124100 0.060000 -119.649243
v 11.933795 0.060000 -116.952081
v 12.678176 0.060000 -117.222565
v 14.054505 0.060000 -113.434873
v 14.633468 0.020000 -113.645250
v 13.257138 0.020000 -117.432942
v 14.001518 0.020000 -117.703427
v 12.124100 0.020000 -119.649243
v 11.933795 0.020000 -116.952081
v 12.678176 0.020000 -117.222565
v 14.054505 0.020000 -113.434873
f 1164 1160 1159
f 1166 1167 1171
f 1165 1164 1159
f 1166 1171 1172
f 1163 1162 1161
f 1168 1169 1170
f 1159 1166 1167 1160
f 1160 1167 1168 1161
f 1161 1168 1169 1162
f 1162 1169 1170 1163
f 1163 1170 1171 1164
f 1164 1171 1172 1165
f 1165 1172 1166 1159
